<svg width="66" height="80" viewBox="0 0 66 80" fill="none" xmlns="http://www.w3.org/2000/svg">
<path d="M52.5395 49.3505C52.5464 51.2123 52.3938 53.0713 52.0835 54.9075C51.5708 58.1225 50.4213 61.2053 48.701 63.9785C44.0463 71.3419 35.6747 74.8645 26.5129 74.8645C17.351 74.8645 8.97078 71.3419 4.31604 63.9785C3.61452 62.8695 3.01437 61.7007 2.52275 60.486C2.05622 59.3684 1.67309 58.2183 1.37643 57.0452C1.21143 56.3613 1.05512 55.6559 0.942222 54.929C0.639202 53.0922 0.493945 51.2332 0.508012 49.372C0.520441 46.3626 0.868473 43.3638 1.54577 40.4301C1.81064 39.2086 2.1363 37.9785 2.50972 36.7527C3.15354 34.5966 3.92043 32.4785 4.8067 30.4086C9.90867 18.4516 18.671 8.17204 26.5085 8.17204C32.8567 8.17204 39.8475 14.9462 44.9755 23.9054C45.8092 25.3634 46.5995 26.8731 47.3159 28.4258C47.6242 29.0753 47.9195 29.7376 48.206 30.4C49.0885 32.4685 49.8553 34.5835 50.503 36.7355C51.7859 40.8227 52.4717 45.0708 52.5395 49.3505Z" fill="#080C20"/>
<path fill-rule="evenodd" clip-rule="evenodd" d="M3.92971 64.2064C8.38471 71.2516 16.6043 75.2946 26.4869 75.2946C36.3913 75.2946 44.6109 71.2516 49.0659 64.2064C50.8158 61.3858 51.986 58.2505 52.5092 54.9806C52.8246 53.1203 52.98 51.2369 52.9738 49.3505C52.8963 45.0301 52.1884 40.7434 50.8722 36.6236C50.2227 34.4551 49.4515 32.3242 48.5622 30.2409V30.215C48.2843 29.5355 47.9847 28.8559 47.6938 28.2452C46.9904 26.7312 46.2088 25.2 45.3404 23.6946C39.6175 13.7032 32.5659 7.74193 26.4869 7.74193C17.9113 7.74193 9.02734 19.4193 4.40734 30.2495C3.51544 32.3338 2.74276 34.4662 2.093 36.6366C1.71089 37.9097 1.38089 39.157 1.12037 40.3441C0.428532 43.298 0.0659686 46.3182 0.0391835 49.3505C0.0328168 51.2355 0.188245 53.1175 0.503789 54.9763C0.599315 55.6645 0.746947 56.3656 0.937999 57.1269C1.23597 58.3265 1.62348 59.5024 2.09734 60.6452C2.60055 61.8836 3.21374 63.0754 3.92971 64.2064ZM5.21063 30.5935C10.7077 17.6602 19.4658 8.62795 26.4869 8.62795V8.60214C32.1838 8.60214 39.1181 14.5634 44.6196 24.129C45.4706 25.6129 46.2522 27.1269 46.9469 28.6236C47.2292 29.2301 47.5244 29.8882 47.8154 30.5806V30.6064C48.6904 32.6534 49.45 34.747 50.0906 36.8774C51.361 40.9183 52.0395 45.1188 52.1054 49.3505C52.1171 51.1873 51.9719 53.0219 51.6712 54.8344C51.1562 57.9964 50.0156 61.0265 48.3147 63.7505C44.0204 70.5419 36.0396 74.4344 26.4869 74.4344C16.9343 74.4344 8.97524 70.5376 4.65918 63.772C3.97258 62.6775 3.38275 61.5263 2.89629 60.3312C2.44066 59.2253 2.06627 58.0883 1.77603 56.929C1.598 56.1935 1.45471 55.5097 1.34181 54.843C1.04111 53.0305 0.895855 51.1959 0.907605 49.3591C0.933824 46.3891 1.28911 43.4309 1.96708 40.5376C2.2276 39.3677 2.54892 38.1419 2.92234 36.8903C3.56542 34.7506 4.32938 32.6483 5.21063 30.5935Z" fill="#093F68"/>
<path d="M45.0145 24C45.5138 25.1613 44.2763 29.3505 44.2242 30.7484C44.0571 33.4398 43.744 36.1204 43.2863 38.7785C43.2282 39.5279 43.0216 40.2587 42.6784 40.929C42.3152 41.5984 41.5949 42.0003 40.8287 41.9613C39.8778 41.8366 39.3046 40.8387 39.1222 39.9097C38.9399 38.9806 39.0137 37.9914 38.6576 37.114C38.3016 36.2366 37.2551 35.5097 36.3954 35.9355C36.042 36.1471 35.7607 36.4587 35.5878 36.8301C34.8974 38.0903 34.6673 39.5398 34.4458 40.9548C33.6946 45.7978 32.1054 51.2086 32.418 56.0989C32.5179 57.686 32.8132 59.4323 31.0894 60.4258C29.3655 61.4194 27.5028 60.0559 26.7907 58.4903C26.1307 57.0452 26.1133 55.4064 25.7703 53.8581C25.297 51.7075 23.0434 45.9828 20.4425 49.6774C19.7738 50.628 19.5741 51.828 19.4134 52.9677C18.4568 59.7274 17.9188 66.5387 17.8025 73.3634C17.7765 74.9462 17.7417 76.6323 16.8473 77.9441C15.9528 79.2559 13.8425 79.8667 12.744 78.7183C12.1013 78.0473 12.0101 77.0366 11.958 76.1118C11.5238 68.4473 11.7062 60.5763 10.8204 52.9548C10.3037 48.5376 6.04409 41.514 1.56738 40.4387C1.83225 39.2172 2.15791 37.9871 2.53133 36.7613C3.17514 34.6052 3.94204 32.4871 4.8283 30.4172C9.90857 18.4516 18.6709 8.17204 26.5084 8.17204C32.8566 8.17204 39.8474 14.9462 44.9754 23.9054C45.8091 25.3634 46.5994 26.8731 47.3158 28.4258C46.4257 27.071 45.8351 25.4323 45.0145 24Z" fill="#3EE9E5"/>
<path fill-rule="evenodd" clip-rule="evenodd" d="M12.4097 79.015C12.8852 79.5026 13.5449 79.7709 14.2291 79.7548L14.5026 79.7462C15.5896 79.6405 16.5759 79.0704 17.2034 78.1849C18.1804 76.757 18.2108 74.9591 18.2368 73.372C18.3547 66.5602 18.8927 59.7619 19.8477 53.015C20.0214 51.815 20.2125 50.7484 20.803 49.9097C21.3458 49.1398 21.8712 48.8043 22.3705 48.8989C23.6167 49.1484 24.9193 52.0344 25.3535 53.9355C25.4664 54.443 25.5446 54.972 25.6184 55.4839C25.7261 56.5543 25.9818 57.605 26.3783 58.6064C26.8682 59.7134 27.7962 60.5719 28.9445 60.9806C29.7259 61.2436 30.5845 61.154 31.2935 60.7355C33.0993 59.695 32.9697 57.8764 32.8655 56.4143L32.8654 56.4129L32.835 56.0129C32.6188 52.587 33.3496 48.8924 34.0589 45.3071L34.0681 45.2602C34.3634 43.772 34.6326 42.3269 34.8584 40.9591C34.8675 40.9038 34.8766 40.8484 34.8858 40.793C35.1021 39.4776 35.3235 38.1319 35.9526 36.9763C36.0845 36.6821 36.3003 36.4324 36.5735 36.2581C36.7942 36.1585 37.0476 36.1585 37.2683 36.2581C37.707 36.4419 38.0549 36.7896 38.2366 37.2258C38.4219 37.7597 38.5272 38.3176 38.5492 38.8817C38.5796 39.2258 38.6143 39.5828 38.6795 39.9398C38.8748 40.9419 39.5305 42.1763 40.7506 42.3355C41.689 42.3967 42.5781 41.9136 43.0302 41.0968C43.4062 40.3861 43.6351 39.6081 43.7033 38.8086L43.7034 38.8074C43.7642 38.3777 43.8249 37.948 43.89 37.5183C44.2708 35.2719 44.5216 33.0059 44.6412 30.7312C44.7204 29.9778 44.8436 29.2296 45.0102 28.4903C45.21 27.4839 45.3793 26.5978 45.4705 25.8495C45.5096 25.9269 45.5443 26 45.5791 26.0774C45.9744 26.9655 46.4269 27.8274 46.9338 28.6581C47.0568 28.8507 47.3101 28.9148 47.5113 28.8043C47.7112 28.6945 47.7909 28.45 47.6937 28.2452C46.9902 26.7312 46.2087 25.2 45.3402 23.6946C39.6173 13.7032 32.5658 7.74193 26.4868 7.74193C17.9112 7.74193 9.02721 19.4193 4.40721 30.2495C3.51531 32.3338 2.74264 34.4662 2.09287 36.6366C1.71077 37.9097 1.38077 39.157 1.12024 40.3484C1.07125 40.5758 1.21356 40.8006 1.44156 40.8559C5.84879 41.914 9.89564 48.9548 10.3689 53.0064C10.9291 57.8409 11.068 62.8731 11.1983 67.7333C11.2721 70.4946 11.3502 73.3505 11.5066 76.1333C11.5413 76.9548 11.6195 78.1935 12.4097 79.015ZM11.2417 52.9075C10.7554 48.6452 6.72156 41.5914 2.07116 40.1333H2.05814C2.29288 39.1018 2.59475 38.0286 2.90601 36.9221L2.92221 36.8645C3.56529 34.7248 4.32926 32.6225 5.2105 30.5677C10.7076 17.6344 19.4656 8.60214 26.4868 8.60214C32.1837 8.60214 39.118 14.5634 44.6108 24.1978C44.8843 24.8215 44.4762 26.886 44.1766 28.3914C43.9965 29.1736 43.8688 29.9667 43.7945 30.7656C43.6706 33.0084 43.4212 35.2426 43.0476 37.4581C43.0172 37.6731 42.9857 37.8882 42.9543 38.1032C42.9228 38.3183 42.8913 38.5333 42.8609 38.7484C42.8033 39.434 42.6147 40.1025 42.3051 40.7183C42.0258 41.2362 41.478 41.5565 40.8852 41.5484C40.1688 41.4366 39.6998 40.6064 39.5522 39.8279C39.4949 39.5033 39.4543 39.176 39.4306 38.8473C39.4034 38.1986 39.2775 37.5577 39.0572 36.9462C38.7854 36.2868 38.2561 35.7641 37.5896 35.4968C37.1394 35.3216 36.6358 35.3403 36.2001 35.5484C35.769 35.7988 35.424 36.172 35.2101 36.6193C34.4827 37.9453 34.2417 39.4783 34.0261 40.8498L34.0204 40.886C33.8033 42.2667 33.5254 43.6731 33.2301 45.157L33.2248 45.1839C32.5057 48.8271 31.763 52.5893 31.9883 56.1204L32.0143 56.529C32.1185 57.9398 32.2141 59.2731 30.8723 60.0516C30.3754 60.3444 29.7735 60.4058 29.2267 60.2193C28.3154 59.8812 27.5809 59.1925 27.1902 58.3097C26.8131 57.3672 26.5719 56.3768 26.4738 55.3677C26.3956 54.843 26.3131 54.2968 26.1959 53.7634C25.8963 52.4129 24.585 48.4688 22.5355 48.0645C21.6671 47.8968 20.8421 48.3527 20.0866 49.4236C19.3831 50.4215 19.1704 51.5914 18.9837 52.9032C18.0183 59.6811 17.4716 66.511 17.3467 73.3548C17.3467 74.8946 17.3076 76.486 16.4783 77.7032C15.9959 78.3703 15.2483 78.8008 14.4245 78.886C13.919 78.9512 13.4118 78.7795 13.0523 78.4215C12.527 77.8753 12.4358 77.0064 12.3837 76.086C12.2317 73.3032 12.1535 70.4645 12.0797 67.7118L12.0756 67.563C11.9423 62.7276 11.8047 57.7354 11.2417 52.9075Z" fill="#093F68"/>
<path d="M42.3167 53.0274L45.8329 50.0589L48.5677 53.2375L45.0515 56.2059L42.3167 53.0274Z" fill="#080C20"/>
<path fill-rule="evenodd" clip-rule="evenodd" d="M44.7194 56.4774C44.8019 56.573 44.9225 56.628 45.0494 56.628C45.1529 56.628 45.253 56.5914 45.3316 56.5247L48.8487 53.557C48.9365 53.4833 48.9912 53.3781 49.0007 53.2645C49.0096 53.1503 48.9721 53.0373 48.8965 52.9505L46.161 49.772C46.0861 49.6853 45.9796 49.6317 45.8647 49.6228C45.7499 49.6139 45.6362 49.6506 45.5487 49.7247L42.036 52.6925C41.9482 52.7662 41.8935 52.8714 41.884 52.9849C41.8739 53.0986 41.9098 53.2115 41.9839 53.2989L44.7194 56.4774ZM45.0971 55.5914L42.9261 53.0667L45.7789 50.6581L47.9499 53.1828L45.0971 55.5914Z" fill="#093F68"/>
<path d="M48.5663 53.2301L64.5279 40.4301C65.0873 39.9894 65.442 39.3426 65.5108 38.6379C65.5796 37.9333 65.3565 37.2311 64.8927 36.6925C64.4288 36.1544 63.7643 35.8258 63.0514 35.782C62.3384 35.7383 61.6381 35.983 61.1107 36.4602L45.8308 50.043L48.5663 53.2301Z" fill="#080C20"/>
<path fill-rule="evenodd" clip-rule="evenodd" d="M48.2364 53.5097C48.3189 53.6052 48.4395 53.6602 48.5664 53.6602C48.668 53.6558 48.7648 53.6162 48.8399 53.5484L64.7972 40.757C65.6778 40.0667 66.1076 38.9552 65.918 37.8588C65.7283 36.7624 64.9494 35.8561 63.887 35.4956C62.8246 35.1352 61.6483 35.3781 60.8198 36.129L45.5399 49.729C45.3631 49.8855 45.3457 50.1536 45.5009 50.3312L48.2364 53.5097ZM48.6098 52.6323L46.4388 50.0903L61.3886 36.7957C61.8301 36.397 62.4164 36.1936 63.0126 36.2323C63.9147 36.2954 64.6861 36.8987 64.9574 37.7534C65.2287 38.608 64.9447 39.54 64.2414 40.1032L48.6098 52.6323Z" fill="#093F68"/>
<path d="M40.7196 55.7279C40.1645 55.0827 40.2421 54.1087 40.8925 53.5596C41.5343 53.0178 42.4928 53.0942 43.0406 53.7309L44.4458 55.3642C45.001 56.0094 44.9233 56.9834 44.2729 57.5325C43.6311 58.0743 42.6726 57.9979 42.1248 57.3612L40.7196 55.7279Z" fill="#080C20"/>
<path fill-rule="evenodd" clip-rule="evenodd" d="M42.1618 58.0645C42.4263 58.371 42.8142 58.5458 43.2213 58.5419C43.5545 58.5462 43.8781 58.4317 44.1331 58.2194L45.0016 57.4796C45.2858 57.2439 45.4613 56.9039 45.4879 56.5376C45.5182 56.1719 45.3993 55.8095 45.1579 55.5312L42.9868 53.028C42.7476 52.7479 42.4051 52.5744 42.0359 52.5462C41.6672 52.5205 41.3029 52.6377 41.0199 52.8731L40.1514 53.6129C39.5653 54.1077 39.4935 54.9788 39.9908 55.5613L42.1618 58.0645ZM41.6017 53.5054C41.6982 53.4261 41.8193 53.3821 41.9447 53.3806L41.9838 53.3849C42.1241 53.3927 42.2548 53.4582 42.3442 53.5656L44.5152 56.0688C44.6065 56.1736 44.6519 56.3102 44.6413 56.4482C44.6307 56.5862 44.565 56.7144 44.4588 56.8043L43.5904 57.5441C43.4841 57.633 43.3471 57.6777 43.2083 57.6688C43.068 57.6575 42.9381 57.5909 42.8479 57.4839L40.6768 54.9806C40.5845 54.8768 40.539 54.74 40.5509 54.6022C40.5635 54.4645 40.6287 54.3368 40.7333 54.2452L41.6017 53.5054Z" fill="#093F68"/>
<path d="M40.1427 54.1935L43.5425 58.1419C43.5425 58.1419 43.3515 59.7677 40.5031 61.4753C39.8081 61.8892 39.0823 62.2501 38.332 62.5548C33.3907 64.5806 30.425 61.1355 30.425 61.1355C33.3169 62.2796 34.2635 59.6 35.2014 56.7312L35.3186 56.3785C36.2782 53.3806 40.1427 54.1935 40.1427 54.1935Z" fill="#080C20"/>
<path fill-rule="evenodd" clip-rule="evenodd" d="M30.0821 61.4108C31.4494 62.8089 33.3275 63.6027 35.2926 63.6129C36.3905 63.6024 37.4754 63.3757 38.4841 62.9462C39.2544 62.6325 40.0004 62.2631 40.7159 61.8409C43.7207 60.043 43.9725 58.2624 43.9725 58.1892C43.985 58.0707 43.9472 57.9523 43.8683 57.8624L40.4684 53.9097C40.4083 53.8358 40.3237 53.7855 40.2296 53.7677C38.762 53.4581 35.7572 53.5828 34.8888 56.2366L34.7716 56.5979C34.2114 58.3183 33.5732 60.271 32.4095 60.8129C31.8138 61.0483 31.1447 61.0186 30.5728 60.7312C30.3871 60.6576 30.1747 60.7192 30.0583 60.8803C29.942 61.0415 29.9518 61.2605 30.0821 61.4108ZM38.1541 62.1505C35.3013 63.3247 33.1693 62.5763 31.9405 61.8194C32.2323 61.7937 32.5173 61.718 32.7829 61.5957C34.2916 60.8934 34.9826 58.7672 35.5928 56.8894L35.6009 56.8645L35.7182 56.5075C36.4737 54.1849 39.2439 54.4774 39.9126 54.5849L43.0693 58.2495C42.9217 58.6753 42.3572 59.8581 40.273 61.1054C39.5936 61.5049 38.8854 61.8542 38.1541 62.1505Z" fill="#093F68"/>
<path d="M30.6812 57.871C30.879 58.3417 31.1296 58.7889 31.4281 59.2043C31.8102 59.6344 32.5787 59.5097 33.0346 59.2731C33.4991 59.0152 33.8904 58.6454 34.1723 58.1978C34.4675 57.7677 34.7063 57.2946 34.9973 56.8559C35.0361 56.7838 35.0948 56.7241 35.1666 56.6839C35.4141 56.5591 35.6442 56.9634 35.7094 57.1398C35.8157 57.4461 35.8856 57.7637 35.9178 58.086C35.9656 58.4258 36.0003 58.7656 36.035 59.1054C36.0248 59.2883 36.0529 59.4713 36.1175 59.643C36.1565 59.7172 36.2237 59.7729 36.3042 59.7978C36.3609 59.8075 36.4191 59.8031 36.4736 59.7849C36.7819 59.6688 37.0511 59.4753 37.3637 59.3849C37.6814 59.2598 38.0442 59.373 38.2321 59.6559C38.3494 59.9011 38.2321 60.1935 38.2712 60.4645C38.3111 60.7607 38.5241 61.0054 38.814 61.0882C39.0113 61.1257 39.2128 61.1373 39.4132 61.1226C39.8026 61.1334 40.1795 61.2609 40.4944 61.4882C39.7994 61.9021 39.0736 62.263 38.3233 62.5677C35.4944 63.7272 32.2426 63.1438 30.0038 61.0753C29.4718 60.5992 29.1505 59.9348 29.1094 59.2258" fill="#3EE9E5"/>
<path d="M35.297 63.5699C33.219 63.5871 31.2149 62.8072 29.7044 61.3935C29.0886 60.8391 28.7187 60.0662 28.6753 59.243C28.6753 59.0055 28.8697 58.8129 29.1095 58.8129C29.3493 58.8129 29.5437 59.0055 29.5437 59.243C29.5854 59.8358 29.8578 60.3894 30.3036 60.7871C32.4207 62.7327 35.4914 63.271 38.1541 62.1634C38.6274 61.9699 39.0703 61.7677 39.4871 61.5527H39.244C39.0585 61.5661 38.8722 61.5486 38.6925 61.5011C38.2275 61.376 37.8846 60.9854 37.8241 60.5118C37.8047 60.3691 37.8047 60.2244 37.8241 60.0817C37.8403 59.995 37.8403 59.9061 37.8241 59.8194C37.7246 59.7481 37.5954 59.7319 37.4811 59.7763C37.3303 59.8248 37.1848 59.8882 37.0469 59.9656C36.906 60.0408 36.761 60.1082 36.6127 60.1677C36.4748 60.2217 36.3249 60.238 36.1785 60.2151C35.9836 60.1683 35.817 60.0438 35.7182 59.871C35.6157 59.6808 35.5662 59.467 35.5749 59.2516C35.5749 59.2129 35.5749 59.1785 35.5749 59.1484V58.9548C35.5445 58.6839 35.5185 58.4129 35.4794 58.1419C35.4475 57.8499 35.3864 57.5618 35.297 57.2817L35.2666 57.2172C35.1667 57.372 35.0756 57.5312 34.98 57.6903C34.8367 57.9355 34.6891 58.1892 34.5198 58.4301C34.1978 58.9395 33.7493 59.3586 33.2171 59.6473C32.5398 59.9957 31.5888 60.0473 31.0852 59.4796C30.8359 59.1787 30.6339 58.8423 30.486 58.4817C30.4208 58.3441 30.3557 58.2022 30.2819 58.0516C30.162 57.8426 30.2358 57.5768 30.4469 57.4581C30.6579 57.3393 30.9262 57.4125 31.0461 57.6215C31.1286 57.7763 31.2024 57.9312 31.2762 58.0903C31.3924 58.3715 31.5457 58.6361 31.7321 58.8774C31.9275 59.0925 32.4529 59.0366 32.822 58.8473C33.2198 58.6216 33.5542 58.3007 33.7946 57.914C33.9466 57.6946 34.0812 57.4839 34.2288 57.2215C34.3765 56.9591 34.485 56.7914 34.624 56.5763C34.7062 56.4411 34.823 56.3298 34.9627 56.2538C35.131 56.1783 35.324 56.1783 35.4924 56.2538C35.7804 56.4055 36.0004 56.6588 36.109 56.9634C36.2222 57.3015 36.2993 57.6503 36.3391 58.0043C36.3782 58.2839 36.4086 58.5677 36.439 58.8645V59.0538C36.439 59.1011 36.439 59.1527 36.439 59.2129C36.4414 59.2401 36.4414 59.2674 36.439 59.2946L36.6344 59.2C36.8202 59.0952 37.0167 59.0102 37.2206 58.9462C37.7383 58.7634 38.3139 58.9734 38.5883 59.4452C38.6819 59.668 38.7105 59.9124 38.6708 60.1505C38.6648 60.2278 38.6648 60.3055 38.6708 60.3828C38.6917 60.5071 38.7803 60.6097 38.901 60.6495C39.0003 60.6637 39.1012 60.6637 39.2006 60.6495H39.396C39.8631 60.6644 40.3158 60.8139 40.6986 61.0796C40.8175 61.1633 40.8861 61.3007 40.881 61.4452C40.8759 61.59 40.7976 61.7226 40.6725 61.7979C39.957 62.2201 39.211 62.5895 38.4407 62.9032C37.4466 63.3259 36.3787 63.5524 35.297 63.5699Z" fill="#093F68"/>
<path d="M31.2327 69.1785C31.3152 68.1204 31.1284 66.4301 30.2557 65.6645C28.3669 64 27.0425 66.7527 26.9731 68.2452C26.8824 69.1383 27.103 70.0354 27.5983 70.7871C28.1264 71.5421 29.102 71.8495 29.9734 71.5355C30.8288 71.1613 31.1632 70.1075 31.2327 69.1785Z" fill="#3EE9E5"/>
<path fill-rule="evenodd" clip-rule="evenodd" d="M27.2511 71.0581C27.7312 71.712 28.493 72.1053 29.3092 72.1204C29.6013 72.1211 29.8901 72.0594 30.1559 71.9398C31.3327 71.4065 31.6062 70 31.667 69.2129C31.7625 67.9656 31.5237 66.2022 30.5424 65.3419C29.674 64.5763 28.9271 64.6495 28.4538 64.8516C27.2337 65.3591 26.5911 67.1699 26.539 68.2366C26.4358 69.2306 26.6878 70.229 27.2511 71.0581ZM28.7838 65.643C28.8801 65.5975 28.9855 65.574 29.0921 65.5742C29.4251 65.5983 29.7367 65.7457 29.9649 65.9871C30.6553 66.5935 30.8811 68.0516 30.7986 69.1484C30.7595 69.6301 30.5902 70.7957 29.7869 71.1613C29.1442 71.4538 28.3453 71.0753 27.9458 70.5419C27.5053 69.8731 27.3134 69.0732 27.4031 68.2796C27.4508 67.286 28.05 65.9484 28.7838 65.643Z" fill="#093F68"/>
<path d="M16.196 16.172L23.9553 12.3312V5.01935L16.196 1.16989C14.1986 0.180644 11.7236 1.43226 11.7236 3.44086V13.9226C11.7236 15.914 14.1986 17.1613 16.196 16.172Z" fill="#080C20"/>
<path fill-rule="evenodd" clip-rule="evenodd" d="M12.7485 16.4043C13.3376 16.7626 14.0155 16.9517 14.7068 16.9505C15.2914 16.9514 15.8682 16.8174 16.3915 16.5591L24.1596 12.7269C24.3056 12.654 24.3979 12.5061 24.3984 12.3441V5.03226C24.3995 4.86876 24.307 4.71874 24.1596 4.64517L16.4002 0.804308C15.2396 0.232714 13.8641 0.291179 12.7572 0.959146C11.859 1.47072 11.3008 2.41461 11.2896 3.44087V13.9226C11.299 14.9471 11.8536 15.8906 12.7485 16.4043ZM13.2044 1.68603C13.6557 1.4085 14.1756 1.25967 14.7068 1.25592C15.1589 1.25342 15.6052 1.35657 16.0094 1.557L23.5299 5.28173V12.0645L16.0094 15.7893C15.119 16.2288 14.0632 16.185 13.2131 15.6731C12.5735 15.3156 12.1723 14.6499 12.158 13.9226V3.44087C12.1689 2.71377 12.5668 2.04649 13.2044 1.68603Z" fill="#093F68"/>
<path d="M17.3424 11.6129C17.1309 11.6148 16.9487 11.4654 16.9112 11.2592C16.8736 11.053 16.9916 10.85 17.1904 10.7785L22.4791 8.7871L15.4709 7.14839C15.3158 7.11304 15.1915 6.99841 15.1448 6.84766C15.0982 6.69692 15.1362 6.53296 15.2447 6.41755C15.3532 6.30215 15.5155 6.25283 15.6707 6.28817L24.0553 8.24946C24.2418 8.29188 24.3783 8.4503 24.3913 8.63946C24.4043 8.82862 24.2908 9.0039 24.1117 9.07097L17.4987 11.5656C17.4504 11.5919 17.3972 11.608 17.3424 11.6129Z" fill="#093F68"/>
<path d="M36.8167 16.172L29.0574 12.3312V5.01935L36.8167 1.17419C38.8141 0.184941 41.2978 1.43655 41.2978 3.42795V13.9226C41.2978 15.914 38.8141 17.1613 36.8167 16.172Z" fill="#080C20"/>
<path fill-rule="evenodd" clip-rule="evenodd" d="M36.6212 16.5591C37.1445 16.8174 37.7213 16.9514 38.306 16.9505C38.9971 16.9511 39.6749 16.762 40.2643 16.4043C41.1625 15.8927 41.7207 14.9488 41.7319 13.9226V3.44086C41.7253 2.40998 41.1665 1.46014 40.2643 0.946237C39.1574 0.27827 37.7818 0.219806 36.6212 0.791399L28.8619 4.63226C28.7145 4.70584 28.6219 4.85585 28.6231 5.01936V12.3312C28.6236 12.4931 28.7159 12.6411 28.8619 12.714L36.6212 16.5591ZM37.012 15.7892L29.4915 12.0645V5.29893L37.012 1.57419C37.902 1.13295 38.9587 1.17683 39.8083 1.69032C40.4479 2.04783 40.8492 2.71353 40.8635 3.44086V13.9226C40.8492 14.6499 40.4479 15.3156 39.8083 15.6731C38.9582 16.185 37.9024 16.2288 37.012 15.7892Z" fill="#093F68"/>
<path d="M35.6703 11.6129C35.6167 11.6134 35.5635 11.6031 35.514 11.5828L28.901 9.07527C28.722 9.0082 28.6084 8.83292 28.6214 8.64376C28.6344 8.4546 28.7709 8.29618 28.9574 8.25377L37.342 6.29248C37.4972 6.25713 37.6595 6.30645 37.768 6.42186C37.8765 6.53726 37.9145 6.70122 37.8679 6.85197C37.8212 7.00271 37.6969 7.11735 37.5418 7.15269L30.5336 8.7914L35.8223 10.7527C36.0212 10.8242 36.1391 11.0272 36.1015 11.2334C36.064 11.4396 35.8819 11.589 35.6703 11.5871V11.6129Z" fill="#093F68"/>
<rect x="23.1042" y="4.43011" width="6.79974" height="8.48172" rx="3.39987" fill="#080C20"/>
<path fill-rule="evenodd" clip-rule="evenodd" d="M24.8151 13.3333H28.2236C29.3941 13.3287 30.3437 12.3937 30.3556 11.2344V6.11183C30.3532 4.94648 29.4001 4.00237 28.2236 4H24.8151C23.6386 4.00237 22.6855 4.94648 22.6831 6.11183V11.2215C22.6879 12.3859 23.6396 13.3286 24.8151 13.3333ZM23.5385 6.11183C23.5409 5.42156 24.1052 4.86257 24.8021 4.86022H28.2236C28.9205 4.86257 29.4848 5.42156 29.4872 6.11183V11.2215C29.4848 11.9118 28.9205 12.4708 28.2236 12.4731H24.8021C24.1102 12.4708 23.548 11.9196 23.5385 11.2344V6.11183Z" fill="#093F68"/>
</svg>
