<svg width="78" height="56" viewBox="0 0 78 56" fill="none" xmlns="http://www.w3.org/2000/svg">
<rect x="17.2058" y="5.77332" width="21.7351" height="9.90333" fill="#080C20"/>
<path fill-rule="evenodd" clip-rule="evenodd" d="M17.2059 16H38.9443C39.1253 16 39.272 15.8508 39.272 15.6667V5.77334C39.272 5.58924 39.1253 5.44 38.9443 5.44H17.2059C17.0249 5.44 16.8782 5.58924 16.8782 5.77334V15.6667C16.8782 15.8508 17.0249 16 17.2059 16ZM38.6166 15.3333H17.5336V6.10667H38.6166V15.3333Z" fill="#093F68"/>
<path d="M75.9091 46.3834H2.66772V34.05C2.66837 32.8279 2.81361 31.6102 3.10033 30.4234C3.27913 29.7117 3.5058 29.0134 3.77873 28.3334L7.32151 19.5234L7.87209 18.1567C8.47369 16.6557 9.90642 15.6724 11.5001 15.6667H44.8664C45.9234 15.6667 46.9355 16.102 47.6718 16.8734L50.1986 19.51L58.8343 28.53C60.3577 30.1187 62.4467 31.0152 64.6286 31.0167H71.1832C72.9488 31.02 74.4289 32.3745 74.6178 34.16L75.0504 38.09L75.9091 46.3834Z" fill="#3EE9E5"/>
<path fill-rule="evenodd" clip-rule="evenodd" d="M2.66782 46.7167H75.9092C76.0037 46.7131 76.0921 46.6681 76.1517 46.5933C76.2142 46.5225 76.2441 46.4279 76.2336 46.3333L74.9555 34.1467C74.9132 33.717 74.7967 33.2984 74.6114 32.91C73.9865 31.5668 72.6574 30.7093 71.1964 30.7067H64.6418C62.5439 30.709 60.5344 29.8481 59.0703 28.32L47.9078 16.6533C47.1079 15.8197 46.0117 15.3488 44.8665 15.3467H11.5034C9.78106 15.3385 8.22573 16.3931 7.57068 18.0133L3.47404 28.1933C3.19457 28.8927 2.9635 29.6111 2.78252 30.3433C2.49029 31.5565 2.34176 32.8009 2.34009 34.05V46.3833C2.34009 46.5674 2.48682 46.7167 2.66782 46.7167ZM75.5454 46.05H2.99555L3.00538 34.0633C3.00677 32.8693 3.14871 31.6797 3.42816 30.52C3.59917 29.8175 3.81819 29.1281 4.08362 28.4567L8.19337 18.28C8.73647 16.9061 10.0443 16.0044 11.5002 16H44.8665C45.8388 15.9995 46.7701 16.3986 47.449 17.1067L58.6082 28.7733C60.1931 30.4274 62.3677 31.3602 64.6385 31.36H71.1931C72.4017 31.3627 73.5011 32.0722 74.0182 33.1833C74.1701 33.5041 74.2665 33.8492 74.3033 34.2033L75.5454 46.05Z" fill="#093F68"/>
<path d="M1.63875 44.1633H7.04304V47.6667H1.63875C1.30585 47.6667 0.986585 47.5322 0.751187 47.2927C0.51579 47.0533 0.383545 46.7286 0.383545 46.39V45.44C0.383545 44.7349 0.945522 44.1633 1.63875 44.1633Z" fill="#3EE9E5"/>
<path fill-rule="evenodd" clip-rule="evenodd" d="M1.63875 48H7.02992C7.11909 48.0036 7.20586 47.9701 7.27018 47.9072C7.33451 47.8443 7.37083 47.7574 7.37076 47.6667V44.1634C7.37076 43.9793 7.22403 43.83 7.04303 43.83H1.63875C0.765792 43.8319 0.059082 44.5521 0.059082 45.44V46.39C0.059082 47.2779 0.765792 47.9982 1.63875 48ZM0.714544 45.44C0.714541 44.9203 1.12779 44.4985 1.63875 44.4967H6.7153V47.3334H1.63875C1.12779 47.3315 0.714541 46.9097 0.714544 46.39V45.44Z" fill="#093F68"/>
<path d="M70.9702 44.1633H76.3614C77.0546 44.1633 77.6166 44.7349 77.6166 45.44V46.39C77.6166 46.7286 77.4844 47.0533 77.249 47.2927C77.0136 47.5322 76.6943 47.6667 76.3614 47.6667H70.9702V44.1633Z" fill="#3EE9E5"/>
<path fill-rule="evenodd" clip-rule="evenodd" d="M70.9701 48H76.3612C77.2342 47.9982 77.9409 47.2779 77.9409 46.39V45.44C77.9409 44.5521 77.2342 43.8319 76.3612 43.83H70.9701C70.7891 43.83 70.6423 43.9793 70.6423 44.1634V47.6667C70.6423 47.8508 70.7891 48 70.9701 48ZM76.3612 47.3334H71.2847L71.2978 44.4967H76.3612C76.8722 44.4985 77.2854 44.9203 77.2854 45.44V46.39C77.2854 46.9097 76.8722 47.3315 76.3612 47.3334Z" fill="#093F68"/>
<ellipse cx="63.9534" cy="47.1567" rx="8.34403" ry="8.48667" fill="#080C20"/>
<path fill-rule="evenodd" clip-rule="evenodd" d="M55.9415 50.5278C57.2836 53.824 60.4458 55.9733 63.9535 55.9733C68.7393 55.9678 72.6181 52.0242 72.6253 47.1567C72.6266 43.589 70.5146 40.3719 67.2743 39.0057C64.034 37.6394 60.3036 38.3932 57.8228 40.9155C55.342 43.4377 54.5995 47.2316 55.9415 50.5278ZM56.5474 44.0365C57.7882 40.9898 60.7112 39.0033 63.9535 39.0033V39C68.3806 39.0037 71.968 42.6539 71.9698 47.1567C71.9698 50.4544 70.0167 53.4274 67.0212 54.6894C64.0257 55.9513 60.5778 55.2538 58.2851 52.9219C55.9925 50.5901 55.3066 47.0832 56.5474 44.0365Z" fill="#093F68"/>
<ellipse cx="63.9534" cy="47.1567" rx="4.0442" ry="4.11333" fill="#093F68"/>
<path fill-rule="evenodd" clip-rule="evenodd" d="M59.9142 48.8583C60.5909 50.5199 62.1851 51.6033 63.9534 51.6033C66.3664 51.5996 68.3217 49.6109 68.3253 47.1566C68.3253 45.3581 67.2601 43.7367 65.6264 43.0485C63.9927 42.3602 62.1123 42.7406 60.8619 44.0124C59.6116 45.2841 59.2375 47.1967 59.9142 48.8583ZM60.2369 47.1566C60.2369 45.069 61.9008 43.3766 63.9534 43.3766C66.0052 43.3785 67.668 45.0698 67.6698 47.1566C67.6698 49.2443 66.0059 50.9366 63.9534 50.9366C61.9008 50.9366 60.2369 49.2443 60.2369 47.1566Z" fill="#093F68"/>
<ellipse cx="13.1617" cy="47.1567" rx="8.34403" ry="8.48667" fill="#080C20"/>
<path fill-rule="evenodd" clip-rule="evenodd" d="M5.14979 50.5278C6.49182 53.824 9.65406 55.9733 13.1618 55.9733C17.9483 55.9697 21.8281 52.025 21.8335 47.1567C21.8349 43.589 19.7229 40.3719 16.4826 39.0057C13.2423 37.6394 9.51185 38.3932 7.03106 40.9155C4.55027 43.4377 3.80775 47.2316 5.14979 50.5278ZM5.14546 47.1567C5.14546 42.6537 8.73448 39.0033 13.1618 39.0033V39C17.5888 39.0037 21.1763 42.6539 21.1781 47.1567C21.1781 51.6596 17.589 55.31 13.1618 55.31C8.73448 55.31 5.14546 51.6596 5.14546 47.1567Z" fill="#093F68"/>
<ellipse cx="13.1616" cy="47.1567" rx="4.0442" ry="4.11333" fill="#093F68"/>
<path fill-rule="evenodd" clip-rule="evenodd" d="M8.78979 47.1567C8.78979 49.6125 10.7472 51.6034 13.1617 51.6034C15.5748 51.5997 17.5301 49.611 17.5337 47.1567C17.5337 44.7009 15.5763 42.71 13.1617 42.71C10.7472 42.71 8.78979 44.7009 8.78979 47.1567ZM9.44526 47.1567C9.44526 45.0691 11.1092 43.3767 13.1617 43.3767C15.2135 43.3785 16.8764 45.0698 16.8782 47.1567C16.8782 49.2443 15.2143 50.9367 13.1617 50.9367C11.1092 50.9367 9.44526 49.2443 9.44526 47.1567Z" fill="#093F68"/>
<path d="M27.464 19.52V30.4367H3.09717C3.27701 29.7206 3.50477 29.0178 3.77885 28.3334L7.32162 19.5234L27.464 19.52Z" fill="#080C20"/>
<path fill-rule="evenodd" clip-rule="evenodd" d="M3.10039 30.77H27.4639C27.6449 30.77 27.7917 30.6207 27.7917 30.4367V19.52C27.7917 19.3359 27.6449 19.1867 27.4639 19.1867H7.31174C7.17824 19.186 7.05767 19.2677 7.00695 19.3933L3.46417 28.2033C3.18566 28.9031 2.95461 29.6214 2.77266 30.3533C2.7468 30.455 2.76954 30.5631 2.83403 30.6451C2.89851 30.727 2.99721 30.7733 3.10039 30.77ZM27.1362 30.1033H3.53955H3.52644C3.681 29.5444 3.86591 28.9947 4.08031 28.4567L7.53787 19.8533H27.1362V30.1033Z" fill="#093F68"/>
<path d="M61.6134 30.4367H31.4622V19.52H50.1789L58.8146 28.54C59.6045 29.3672 60.5586 30.0138 61.6134 30.4367Z" fill="#080C20"/>
<path fill-rule="evenodd" clip-rule="evenodd" d="M61.6004 30.77H61.602C61.7588 30.7696 61.8935 30.6562 61.9231 30.4994C61.9527 30.3421 61.8681 30.1855 61.7217 30.1266C60.7145 29.7176 59.8033 29.0975 59.0474 28.3066L50.4117 19.2866C50.3504 19.223 50.2666 19.187 50.179 19.1866H31.4623C31.2813 19.1866 31.1345 19.3359 31.1345 19.52V30.4366C31.1345 30.6207 31.2813 30.77 31.4623 30.77H61.6004ZM60.237 30.1033H31.79L31.8096 19.8533H50.061L58.5984 28.77C59.0873 29.2828 59.6379 29.7307 60.237 30.1033Z" fill="#093F68"/>
<path d="M53.2924 44.4967H24.5799C24.3989 44.4967 24.2522 44.3474 24.2522 44.1634C24.2522 43.9793 24.3989 43.83 24.5799 43.83H53.2793C53.4603 43.83 53.6071 43.9793 53.6071 44.1634C53.6071 44.3474 53.4603 44.4967 53.2793 44.4967H53.2924Z" fill="#093F68"/>
<path d="M29.263 43.0967C29.082 43.0967 28.9353 42.9474 28.9353 42.7633V32.1967C28.9353 32.0126 29.082 31.8633 29.263 31.8633C29.444 31.8633 29.5908 32.0126 29.5908 32.1967V42.7633C29.5908 42.9474 29.444 43.0967 29.263 43.0967Z" fill="#093F68"/>
<path d="M37.0336 34.28H33.4908C33.3098 34.28 33.1631 34.1308 33.1631 33.9467C33.1631 33.7626 33.3098 33.6133 33.4908 33.6133H37.0336C37.2146 33.6133 37.3613 33.7626 37.3613 33.9467C37.3613 34.1308 37.2146 34.28 37.0336 34.28Z" fill="#093F68"/>
<path d="M25.0354 34.28H21.5057C21.3247 34.28 21.178 34.1308 21.178 33.9467C21.178 33.7626 21.3247 33.6133 21.5057 33.6133H25.0354C25.2164 33.6133 25.3631 33.7626 25.3631 33.9467C25.3631 34.1308 25.2164 34.28 25.0354 34.28Z" fill="#093F68"/>
<rect x="0.773438" y="33.07" width="1.89429" height="5.60333" fill="#080C20"/>
<path fill-rule="evenodd" clip-rule="evenodd" d="M0.773532 39H2.66782C2.84882 39 2.99555 38.8508 2.99555 38.6667V33.07C2.99555 32.8859 2.84882 32.7367 2.66782 32.7367H0.773532C0.592531 32.7367 0.445801 32.8859 0.445801 33.07V38.6667C0.445801 38.8508 0.592531 39 0.773532 39ZM2.34009 38.3334H1.10126V33.4034H2.34009V38.3334Z" fill="#093F68"/>
<path d="M75.0505 38.09H72.2976C71.5464 38.09 70.9375 37.4707 70.9375 36.7067V34.42C70.9375 33.656 71.5464 33.0367 72.2976 33.0367H74.3131C74.4848 33.3928 74.5956 33.7761 74.6409 34.17L75.0505 38.09Z" fill="#080C20"/>
<path fill-rule="evenodd" clip-rule="evenodd" d="M72.2974 38.4233H75.0504C75.144 38.424 75.2334 38.384 75.2962 38.3133C75.3578 38.2433 75.3876 38.1501 75.3781 38.0566L74.9521 34.1333C74.9093 33.7027 74.7928 33.2831 74.6079 32.8933C74.5537 32.7775 74.439 32.7037 74.313 32.7033H72.2974C71.366 32.7051 70.6114 33.4726 70.6096 34.42V36.7066C70.6114 37.654 71.366 38.4215 72.2974 38.4233ZM71.2749 34.42C71.2749 33.8401 71.7371 33.37 72.3073 33.37H74.1098C74.2126 33.6377 74.2809 33.9178 74.313 34.2033L74.6866 37.7566H72.3073C71.7371 37.7566 71.2749 37.2865 71.2749 36.7066V34.42Z" fill="#093F68"/>
<path d="M9.59604 28.4066C9.49289 28.4066 9.39575 28.3572 9.33386 28.2733C9.28171 28.2026 9.25931 28.1137 9.27161 28.0262C9.2839 27.9387 9.32987 27.8597 9.3994 27.8066L17.6648 21.5033C17.7343 21.4503 17.8217 21.4275 17.9078 21.44C17.9938 21.4525 18.0715 21.4993 18.1236 21.57C18.1758 21.6407 18.1982 21.7296 18.1859 21.8171C18.1736 21.9046 18.1276 21.9836 18.0581 22.0366L9.79268 28.3333C9.73679 28.379 9.66771 28.4047 9.59604 28.4066Z" fill="#093F68"/>
<path d="M19.1526 27.3867C19.0133 27.3873 18.8888 27.2982 18.8423 27.1645C18.7958 27.0309 18.8375 26.882 18.9462 26.7933L24.8289 21.89C24.8962 21.8337 24.9828 21.807 25.0695 21.8157C25.1562 21.8245 25.2359 21.868 25.291 21.9367C25.3464 22.0051 25.3727 22.0932 25.364 22.1813C25.3554 22.2695 25.3127 22.3506 25.2451 22.4067L19.3624 27.31C19.3034 27.3597 19.2292 27.3868 19.1526 27.3867Z" fill="#093F68"/>
<path d="M35.2541 28.4067C35.1621 28.4073 35.0741 28.3686 35.0116 28.3C34.9525 28.2344 34.9216 28.1474 34.9259 28.0585C34.9302 27.9696 34.9693 27.8861 35.0345 27.8267L42.6051 20.7634C42.739 20.6391 42.9467 20.6488 43.0688 20.785C43.191 20.9213 43.1815 21.1324 43.0475 21.2567L35.477 28.3334C35.4141 28.3849 35.3347 28.411 35.2541 28.4067Z" fill="#093F68"/>
<path d="M45.3252 27.3866C45.2388 27.3854 45.1563 27.3494 45.0958 27.2866C44.9687 27.1566 44.9687 26.9466 45.0958 26.8166L48.7008 23.15C48.8287 23.0207 49.0351 23.0207 49.1629 23.15C49.29 23.28 49.29 23.49 49.1629 23.62L45.5579 27.2866C45.4966 27.3503 45.4128 27.3863 45.3252 27.3866Z" fill="#093F68"/>
<path fill-rule="evenodd" clip-rule="evenodd" d="M13.1091 16H42.8278C42.9281 15.9961 43.021 15.9458 43.0802 15.8633C43.1419 15.7766 43.159 15.665 43.126 15.5633L41.7102 11.1467C41.6663 11.0096 41.5407 10.9168 41.3989 10.9167H14.5249C14.3772 10.9093 14.2429 11.0035 14.1972 11.1467L12.7814 15.5633C12.7478 15.6676 12.7669 15.7821 12.8324 15.8693C12.8978 15.9566 13.0014 16.0054 13.1091 16ZM42.3788 15.3333H13.568L14.7707 11.5833H41.176L42.3788 15.3333Z" fill="#093F68"/>
<rect x="21.45" y="0.359985" width="14.2497" height="5.41333" fill="#080C20"/>
<path fill-rule="evenodd" clip-rule="evenodd" d="M21.45 6.10667H35.6965C35.8775 6.10667 36.0242 5.95743 36.0242 5.77334V0.360006C36.0242 0.175911 35.8775 0.0266724 35.6965 0.0266724H21.45C21.269 0.0266724 21.1223 0.175911 21.1223 0.360006V5.77334C21.1223 5.95743 21.269 6.10667 21.45 6.10667ZM35.3688 5.44001H21.7778V0.693339H35.3688V5.44001Z" fill="#093F68"/>
<path d="M21.9089 16C21.8774 16.0047 21.8454 16.0047 21.8138 16C21.6414 15.947 21.5433 15.7624 21.5943 15.5866L26.0711 0.253315C26.1232 0.0779272 26.3047 -0.0218194 26.4775 0.0299817C26.6512 0.0815283 26.751 0.266584 26.7003 0.443315L22.2235 15.7766C22.1769 15.9123 22.0501 16.0023 21.9089 16Z" fill="#093F68"/>
<path d="M35.4442 16C35.2937 16.0061 35.1585 15.9071 35.1165 15.76L30.7511 0.426691C30.7025 0.251019 30.8018 0.0682702 30.9739 0.0166909C31.0574 -0.00806264 31.1471 0.00191185 31.2233 0.0444201C31.2995 0.0869283 31.356 0.158488 31.3803 0.243358L35.7457 15.5767C35.7964 15.7534 35.6966 15.9385 35.5229 15.99C35.4972 15.9971 35.4708 16.0005 35.4442 16Z" fill="#093F68"/>
<path d="M20.5029 7.44999H18.838C18.657 7.44999 18.5103 7.30075 18.5103 7.11666C18.5103 6.93256 18.657 6.78333 18.838 6.78333H20.5029C20.6839 6.78333 20.8306 6.93256 20.8306 7.11666C20.8306 7.30075 20.6839 7.44999 20.5029 7.44999Z" fill="#093F68"/>
<path d="M23.5967 1.96336H22.5643C22.3833 1.96336 22.2366 1.81412 22.2366 1.63003C22.2366 1.44593 22.3833 1.29669 22.5643 1.29669H23.5967C23.7777 1.29669 23.9244 1.44593 23.9244 1.63003C23.9244 1.81412 23.7777 1.96336 23.5967 1.96336Z" fill="#093F68"/>
</svg>
