<svg width="80" height="94" viewBox="0 0 80 94" fill="none" xmlns="http://www.w3.org/2000/svg">
<path d="M60.2848 92.8708L45.4121 83.1046V54.8252C45.4121 53.8341 44.6143 53.0307 43.6303 53.0307C42.6462 53.0307 41.8484 53.8341 41.8484 54.8252V83.129L26.9757 92.8952L60.2848 92.8708Z" fill="#3EE9E5"/>
<path fill-rule="evenodd" clip-rule="evenodd" d="M26.9515 93.4812H60.2787C60.5471 93.4805 60.7831 93.3021 60.8587 93.0427C60.9343 92.7833 60.8315 92.5047 60.606 92.3581L45.9939 82.7993V54.8252C45.9939 53.497 44.9248 52.4203 43.606 52.4203C42.2872 52.4203 41.2181 53.497 41.2181 54.8252V82.7993L26.6242 92.3581C26.3987 92.5047 26.2959 92.7833 26.3715 93.0427C26.4471 93.3021 26.6831 93.4805 26.9515 93.4812ZM58.2424 92.2604H29.0242L42.1818 83.6417C42.3529 83.5282 42.4555 83.3353 42.4545 83.129V54.8252C42.4545 54.1712 42.9809 53.641 43.6303 53.641C44.2796 53.641 44.806 54.1712 44.806 54.8252V83.1106C44.805 83.317 44.9076 83.5099 45.0787 83.6234L58.2424 92.2604Z" fill="#093F68"/>
<ellipse cx="11.6667" cy="19.0441" rx="11.0242" ry="11.103" fill="#080C20"/>
<path fill-rule="evenodd" clip-rule="evenodd" d="M0.921655 23.5267C2.7218 27.9037 6.96264 30.7575 11.6667 30.7575C18.0871 30.7508 23.2903 25.5105 23.297 19.0442C23.297 14.3065 20.4633 10.0354 16.1174 8.22241C11.7714 6.40941 6.76903 7.41155 3.44279 10.7616C0.116544 14.1116 -0.878495 19.1497 0.921655 23.5267ZM2.04093 15.0363C3.65311 11.1148 7.45234 8.55767 11.6667 8.55767V8.54546C17.4201 8.55219 22.0815 13.2497 22.0848 19.0442C22.0873 23.2886 19.5505 27.1164 15.6577 28.7424C11.7649 30.3684 7.28287 29.4722 4.30203 26.4718C1.3212 23.4714 0.42875 18.9579 2.04093 15.0363Z" fill="#093F68"/>
<path d="M43.6303 58.1213L7.90308 16.2852H79.3576L43.6303 58.1213Z" fill="#080C20"/>
<path fill-rule="evenodd" clip-rule="evenodd" d="M43.1757 58.5181C43.2909 58.6536 43.4592 58.7317 43.6363 58.7317C43.8114 58.7299 43.9771 58.652 44.0909 58.5181L79.8182 16.682C79.9727 16.5009 80.0082 16.2457 79.9091 16.0288C79.8096 15.8125 79.5943 15.6742 79.3575 15.6748H7.90906C7.67235 15.6742 7.45696 15.8125 7.35755 16.0288C7.25841 16.2457 7.29393 16.5009 7.44845 16.682L43.1757 58.5181ZM43.6303 57.1813L9.22421 16.8956H78.0363L43.6303 57.1813Z" fill="#093F68"/>
<path d="M16.5031 26.3505L43.6303 58.1213L70.7576 26.3505H16.5031Z" fill="#3EE9E5"/>
<path fill-rule="evenodd" clip-rule="evenodd" d="M43.1757 58.5181C43.2909 58.6536 43.4592 58.7317 43.6363 58.7317C43.8135 58.7317 43.9818 58.6536 44.0969 58.5181L71.2242 26.7473C71.3787 26.5662 71.4142 26.311 71.3151 26.0942C71.2157 25.8778 71.0003 25.7395 70.7636 25.7401H16.509C16.2723 25.7395 16.0569 25.8778 15.9575 26.0942C15.8584 26.311 15.8939 26.5662 16.0484 26.7473L43.1757 58.5181ZM43.6363 57.1813L17.8302 26.9914L69.4484 26.9609L43.6363 57.1813Z" fill="#093F68"/>
<path d="M44.6485 53.5251C44.5345 53.5236 44.4231 53.4898 44.3273 53.4274C44.1915 53.3408 44.0954 53.2034 44.0601 53.0454C44.0249 52.8875 44.0534 52.7219 44.1395 52.5851L76.8061 0.305199C76.9852 0.0186569 77.361 -0.0674266 77.6455 0.112927C77.93 0.29328 78.0155 0.671774 77.8364 0.958316L45.1637 53.2382C45.0527 53.417 44.8579 53.5255 44.6485 53.5251Z" fill="#093F68"/>
<ellipse cx="73.0849" cy="7.94728" rx="6.27273" ry="6.31753" fill="#080C20"/>
<path fill-rule="evenodd" clip-rule="evenodd" d="M66.194 7.94727C66.1973 11.7768 69.2825 14.8786 73.0849 14.8752C76.8859 14.8685 79.9637 11.7632 79.9637 7.93506C79.9603 4.10551 76.8752 1.00378 73.0728 1.00715C69.2704 1.01052 66.1906 4.11772 66.194 7.94727ZM67.8385 5.7595C68.7177 3.6233 70.7888 2.23156 73.0849 2.23402C76.2094 2.24073 78.7415 4.78826 78.7515 7.93506C78.7564 10.2475 77.3768 12.3349 75.2567 13.2227C73.1366 14.1105 70.6942 13.6236 69.0698 11.9893C67.4453 10.355 66.9593 7.8957 67.8385 5.7595Z" fill="#093F68"/>
<path d="M69.6243 7.60545C69.564 7.61466 69.5027 7.61466 69.4425 7.60545C69.1229 7.50587 68.9439 7.16438 69.0425 6.84246C69.9041 4.23547 72.6626 2.78564 75.2788 3.56467C75.6135 3.6422 75.8225 3.97834 75.7455 4.31545C75.6685 4.65256 75.3347 4.86298 75 4.78545C71.297 3.90038 70.2425 7.09882 70.2 7.22701C70.1046 7.46119 69.8755 7.61175 69.6243 7.60545Z" fill="#093F68"/>
<path fill-rule="evenodd" clip-rule="evenodd" d="M40.4182 35.1218C40.5004 35.1581 40.5891 35.1768 40.6788 35.1768C40.7427 35.1776 40.8063 35.1673 40.8667 35.1462C41.0183 35.0927 41.1425 34.9807 41.2122 34.8349L46.2182 24.2935C46.3612 23.9901 46.2339 23.6273 45.9334 23.4817L35.4728 18.4277C35.1715 18.2836 34.8112 18.4118 34.6667 18.7145L29.6485 29.2499C29.5862 29.4003 29.5862 29.5695 29.6485 29.7199C29.6994 29.8724 29.8115 29.9964 29.9576 30.0617L40.4182 35.1218ZM40.394 33.7545L31.0243 29.2255L35.5213 19.7888L44.8909 24.3179L40.394 33.7545Z" fill="#093F68"/>
<path fill-rule="evenodd" clip-rule="evenodd" d="M38.4 48.117C38.4919 48.3494 38.7153 48.5018 38.9637 48.5016C39.0486 48.505 39.1332 48.4905 39.2122 48.4588L47.2606 45.2543C47.5713 45.1322 47.7256 44.7804 47.6061 44.4669L44.4243 36.3548C44.3649 36.2042 44.2485 36.0835 44.1007 36.0193C43.9529 35.9552 43.7859 35.9529 43.6364 36.013L35.5637 39.2114C35.4141 39.2712 35.2943 39.3884 35.2306 39.5373C35.1669 39.6861 35.1647 39.8544 35.2243 40.0049L38.4 48.117ZM39.3031 47.0977L36.5697 40.127L43.497 37.3742L46.2303 44.3448L39.3031 47.0977Z" fill="#093F68"/>
</svg>
