<svg width="60" height="71" viewBox="0 0 60 71" fill="none" xmlns="http://www.w3.org/2000/svg">
<path d="M45.2138 70.1471L34.0592 62.7704V41.4105C34.0592 40.6619 33.4609 40.0551 32.7228 40.0551C31.9848 40.0551 31.3865 40.6619 31.3865 41.4105V62.7889L20.2319 70.1655L45.2138 70.1471Z" fill="#3EE9E5"/>
<path fill-rule="evenodd" clip-rule="evenodd" d="M20.2137 70.6081H45.2091C45.4104 70.6076 45.5874 70.4728 45.6441 70.2769C45.7008 70.081 45.6237 69.8706 45.4546 69.7598L34.4955 62.5399V41.4105C34.4955 40.4073 33.6937 39.594 32.7046 39.594C31.7155 39.594 30.9137 40.4073 30.9137 41.4105V62.5399L19.9682 69.7598C19.7991 69.8706 19.722 70.081 19.7787 70.2769C19.8354 70.4728 20.0124 70.6076 20.2137 70.6081ZM43.6818 69.686H21.7682L31.6364 63.1762C31.7647 63.0904 31.8417 62.9448 31.8409 62.7889V41.4105C31.8409 40.9165 32.2357 40.5161 32.7228 40.5161C33.2098 40.5161 33.6046 40.9165 33.6046 41.4105V62.7751C33.6038 62.9309 33.6808 63.0766 33.8091 63.1623L43.6818 69.686Z" fill="#093F68"/>
<ellipse cx="8.75012" cy="14.3844" rx="8.26818" ry="8.3863" fill="#080C20"/>
<path fill-rule="evenodd" clip-rule="evenodd" d="M0.691333 17.7701C2.04145 21.0762 5.22207 23.2317 8.75008 23.2317C13.5654 23.2267 17.4678 19.2685 17.4728 14.3844C17.4728 10.806 15.3476 7.57993 12.0881 6.21053C8.82867 4.84113 5.07686 5.59807 2.58218 8.12839C0.0874996 10.6587 -0.65878 14.4641 0.691333 17.7701ZM1.53079 11.3572C2.73992 8.39518 5.58935 6.46375 8.75008 6.46375V6.45453C13.0651 6.45962 16.5612 10.0077 16.5637 14.3844C16.5656 17.5903 14.663 20.4815 11.7434 21.7097C8.82377 22.9378 5.46224 22.2609 3.22662 19.9946C0.990989 17.7284 0.321654 14.3192 1.53079 11.3572Z" fill="#093F68"/>
<path d="M32.7227 43.9001L5.92725 12.3005H59.5182L32.7227 43.9001Z" fill="#080C20"/>
<path fill-rule="evenodd" clip-rule="evenodd" d="M32.3819 44.1998C32.4682 44.3022 32.5944 44.3612 32.7273 44.3612C32.8586 44.3598 32.9829 44.301 33.0682 44.1998L59.8637 12.6002C59.9796 12.4634 60.0062 12.2707 59.9319 12.1069C59.8573 11.9435 59.6958 11.839 59.5182 11.8395H5.93186C5.75432 11.839 5.59278 11.9435 5.51822 12.1069C5.44387 12.2707 5.47051 12.4634 5.5864 12.6002L32.3819 44.1998ZM32.7228 43.1901L6.91822 12.7616H58.5273L32.7228 43.1901Z" fill="#093F68"/>
<path d="M12.3772 19.903L32.7227 43.9001L53.0681 19.903H12.3772Z" fill="#3EE9E5"/>
<path fill-rule="evenodd" clip-rule="evenodd" d="M32.3818 44.1998C32.4682 44.3022 32.5944 44.3612 32.7273 44.3612C32.8601 44.3612 32.9864 44.3022 33.0727 44.1998L53.4182 20.2027C53.5341 20.066 53.5607 19.8732 53.4864 19.7094C53.4118 19.546 53.2502 19.4416 53.0727 19.442H12.3818C12.2043 19.4416 12.0427 19.546 11.9682 19.7094C11.8938 19.8732 11.9205 20.066 12.0364 20.2027L32.3818 44.1998ZM32.7273 43.1901L13.3727 20.3871L52.0863 20.3641L32.7273 43.1901Z" fill="#093F68"/>
<path d="M33.4863 40.4285C33.4007 40.4274 33.3172 40.4018 33.2454 40.3547C33.1435 40.2893 33.0714 40.1855 33.045 40.0662C33.0186 39.9469 33.04 39.8218 33.1045 39.7185L57.6045 0.230519C57.7388 0.0140882 58.0206 -0.0509323 58.234 0.085292C58.4474 0.221516 58.5115 0.5074 58.3772 0.723831L33.8727 40.2118C33.7894 40.3469 33.6433 40.4288 33.4863 40.4285Z" fill="#093F68"/>
<ellipse cx="54.8137" cy="6.00274" rx="4.70455" ry="4.77175" fill="#080C20"/>
<path fill-rule="evenodd" clip-rule="evenodd" d="M49.6455 6.00273C49.648 8.89526 51.9619 11.2381 54.8137 11.2355C57.6644 11.2304 59.9728 8.88499 59.9728 5.9935C59.9703 3.10097 57.6564 0.758169 54.8046 0.760716C51.9528 0.763262 49.643 3.11019 49.6455 6.00273ZM50.8789 4.35026C51.5383 2.73675 53.0916 1.68554 54.8137 1.6874C57.1571 1.69246 59.0562 3.61667 59.0637 5.9935C59.0674 7.74014 58.0326 9.31679 56.4425 9.98735C54.8525 10.6579 53.0207 10.2902 51.8023 9.05575C50.584 7.82135 50.2195 5.96377 50.8789 4.35026Z" fill="#093F68"/>
<path d="M52.2181 5.74454C52.1729 5.7515 52.127 5.7515 52.0818 5.74454C51.8421 5.66933 51.7079 5.4114 51.7818 5.16825C52.428 3.19913 54.4969 2.10405 56.4591 2.69247C56.7101 2.75103 56.8668 3.00492 56.8091 3.25954C56.7513 3.51417 56.501 3.67311 56.25 3.61454C53.4727 2.94604 52.6818 5.36188 52.65 5.4587C52.5784 5.63558 52.4066 5.7493 52.2181 5.74454Z" fill="#093F68"/>
<path fill-rule="evenodd" clip-rule="evenodd" d="M30.3137 26.5282C30.3753 26.5556 30.4419 26.5697 30.5092 26.5697C30.5571 26.5703 30.6048 26.5625 30.6501 26.5466C30.7638 26.5062 30.8569 26.4216 30.9092 26.3115L34.6637 18.3493C34.771 18.1201 34.6755 17.8461 34.4501 17.7362L26.6046 13.9188C26.3787 13.81 26.1085 13.9068 26.0001 14.1354L22.2365 22.093C22.1897 22.2066 22.1897 22.3344 22.2365 22.448C22.2746 22.5632 22.3587 22.6569 22.4683 22.7062L30.3137 26.5282ZM30.2955 25.4954L23.2683 22.0745L26.641 14.9469L33.6683 18.3678L30.2955 25.4954Z" fill="#093F68"/>
<path fill-rule="evenodd" clip-rule="evenodd" d="M28.7999 36.3437C28.8688 36.5192 29.0364 36.6343 29.2226 36.6342C29.2863 36.6368 29.3498 36.6258 29.409 36.6019L35.4454 34.1814C35.6783 34.0892 35.7941 33.8235 35.7045 33.5867L33.3181 27.4595C33.2736 27.3457 33.1863 27.2545 33.0754 27.2061C32.9646 27.1577 32.8393 27.1559 32.7272 27.2013L26.6726 29.6171C26.5605 29.6623 26.4706 29.7508 26.4228 29.8633C26.3751 29.9757 26.3734 30.1028 26.4181 30.2165L28.7999 36.3437ZM29.4772 35.5738L27.4272 30.3087L32.6226 28.2294L34.6726 33.4945L29.4772 35.5738Z" fill="#093F68"/>
</svg>
