<svg width="56" height="67" viewBox="0 0 56 67" fill="none" xmlns="http://www.w3.org/2000/svg">
<path d="M53.1711 18.6244C50.7293 15.6237 45.5782 15.4593 44.1864 10.9872C42.7946 6.51503 43.1982 4.62012 43.1982 4.62012H12.8017C12.8017 4.62012 13.2135 6.51091 11.8135 10.9872C10.4135 15.4634 5.27052 15.6196 2.82876 18.6244C0.666992 21.2879 0.666992 25.2216 0.666992 29.3896V57.0486C0.666992 61.5249 2.75052 66.2313 7.69993 66.2313H48.2999C53.2411 66.2313 55.3329 61.5249 55.3329 57.0486V29.3896C55.3329 25.2216 55.3329 21.2879 53.1711 18.6244Z" fill="#080C20"/>
<path fill-rule="evenodd" clip-rule="evenodd" d="M7.70008 66.6424H48.3001C53.443 66.6424 55.7448 61.8209 55.786 57.0528V29.3937C55.786 25.1517 55.786 21.144 53.5336 18.3695C52.4936 17.0934 50.9982 16.3088 49.5511 15.5496L49.5436 15.5456C47.3942 14.4276 45.3807 13.3712 44.6024 10.868C43.2724 6.5808 43.6265 4.70233 43.6265 4.70233C43.6517 4.5801 43.6199 4.45308 43.5401 4.35705C43.4625 4.26158 43.3462 4.20578 43.223 4.20497H12.8265C12.7014 4.20244 12.582 4.25683 12.5019 4.35278C12.4218 4.44874 12.3897 4.57584 12.4148 4.69822C12.4148 4.69847 12.4149 4.69893 12.415 4.69958C12.426 4.76174 12.7551 6.62926 11.4389 10.8639C10.6442 13.3671 8.63066 14.4235 6.49772 15.5415C6.46353 15.5597 6.42931 15.5778 6.39507 15.596C4.97785 16.3471 3.52491 17.1172 2.50772 18.3654C0.255371 21.1399 0.255371 25.1476 0.255371 29.3896V57.0486C0.255371 61.8209 2.55714 66.6424 7.70008 66.6424ZM12.2089 11.1064C13.2342 7.80981 13.3042 5.8738 13.2589 5.03116H42.766C42.7207 5.8738 42.7907 7.81803 43.816 11.1064C44.6964 13.9362 46.9541 15.1204 49.139 16.2664L49.1442 16.2691C50.5813 17.0213 51.9442 17.7365 52.8748 18.8833C54.9336 21.4318 54.9336 25.2791 54.9336 29.3896V57.0486C54.9336 61.4139 52.8871 65.8203 48.3124 65.8203H7.71243C3.15008 65.8203 1.09125 61.4139 1.09125 57.0486V29.3896C1.09125 25.2956 1.09125 21.4318 3.15008 18.8833C4.08067 17.7365 5.44361 17.0213 6.88066 16.2691L6.88586 16.2664C9.07072 15.1204 11.3284 13.9362 12.2089 11.1064Z" fill="#093F68"/>
<path fill-rule="evenodd" clip-rule="evenodd" d="M7.69995 64.1761H48.2999C53.0708 64.1761 53.2694 57.9532 53.2977 57.0665C53.2981 57.054 53.2984 57.0426 53.2988 57.0322V29.3731C53.2988 25.5956 53.2988 22.0155 51.5982 19.9191C50.8776 19.0354 49.6629 18.3983 48.3741 17.7242L48.2865 17.6776C46.0537 16.4901 43.3118 15.032 42.2429 11.5955C41.7468 9.83477 41.4037 8.03458 41.2176 6.21497C41.1925 6.0074 41.0153 5.85174 40.8058 5.85325H15.2352C15.0258 5.85174 14.8486 6.0074 14.8235 6.21497C14.6329 8.0406 14.2843 9.84634 13.7817 11.612C12.6988 15.0935 9.89877 16.5609 7.64642 17.7406L7.64441 17.7417C6.36045 18.4154 5.14663 19.0523 4.42642 19.9356C2.72583 22.0155 2.72583 25.5956 2.72583 29.3896V57.0486C2.72583 57.7762 2.86171 64.1761 7.69995 64.1761ZM14.5682 11.838C15.0499 10.1484 15.3887 8.42149 15.5811 6.67533H40.4188C40.6112 8.42149 40.95 10.1484 41.4317 11.838C42.6176 15.6443 45.5823 17.2186 47.9705 18.4517C49.177 19.0847 50.3176 19.6848 50.9311 20.4371C52.4505 22.3073 52.4505 25.7477 52.4505 29.3896V57.0486C52.4505 57.694 52.3352 63.354 48.2999 63.354H7.69995C3.66465 63.354 3.54936 57.694 3.54936 57.0486V29.3896C3.54936 25.7477 3.54936 22.3073 5.06877 20.4371C5.6823 19.6848 6.82289 19.0847 8.03348 18.4517C8.06421 18.4353 8.09503 18.4189 8.12595 18.4025C10.4937 17.1416 13.3976 15.5952 14.5682 11.838Z" fill="#093F68"/>
<path d="M10.1416 0.608345H45.8581C47.6183 0.608345 49.0452 2.03274 49.0452 3.78982V5.84503C49.0452 6.31489 48.8582 6.7655 48.5254 7.09774C48.1926 7.42998 47.7412 7.61663 47.2705 7.61663H8.7293C8.25861 7.61663 7.80721 7.42998 7.47439 7.09774C7.14157 6.7655 6.95459 6.31489 6.95459 5.84503V3.78982C6.95459 2.03274 8.38148 0.608345 10.1416 0.608345Z" fill="#080C20"/>
<path fill-rule="evenodd" clip-rule="evenodd" d="M8.72944 8.04H47.2706C48.4782 8.04 49.4571 7.0628 49.4571 5.85736V3.80215C49.4548 1.819 47.8449 0.211898 45.8583 0.209633H10.1418C8.15516 0.211898 6.54524 1.819 6.54297 3.80215V5.85736C6.54297 7.0628 7.52188 8.04 8.72944 8.04ZM8.17936 1.83083C8.69983 1.31127 9.40574 1.01939 10.1418 1.01939H45.8583C47.391 1.01939 48.6336 2.25975 48.6336 3.78982V5.84503C48.6336 6.59644 48.0233 7.20558 47.2706 7.20558H8.72944C7.97671 7.20558 7.3665 6.59644 7.3665 5.84503V3.78982C7.3665 3.05505 7.65889 2.35038 8.17936 1.83083Z" fill="#093F68"/>
<rect x="9.35938" y="34.6263" width="24.5206" height="5.70117" rx="2.85058" fill="#3EE9E5"/>
<path fill-rule="evenodd" clip-rule="evenodd" d="M11.0066 40.7385H32.233C33.3701 40.7385 34.2919 39.8183 34.2919 38.6832V36.2704C34.2919 35.1354 33.3701 34.2152 32.233 34.2152H11.0066C9.86952 34.2152 8.94775 35.1354 8.94775 36.2704V38.6832C8.94775 39.8183 9.86952 40.7385 11.0066 40.7385ZM9.77128 36.2704C9.77128 35.5894 10.3243 35.0373 11.0066 35.0373H32.233C32.9153 35.0373 33.4683 35.5894 33.4683 36.2704V38.6832C33.4683 39.3643 32.9153 39.9164 32.233 39.9164H11.0066C10.3243 39.9164 9.77128 39.3643 9.77128 38.6832V36.2704Z" fill="#093F68"/>
<rect x="11.8752" y="40.3274" width="24.5206" height="5.70117" rx="2.85058" fill="#3EE9E5"/>
<path fill-rule="evenodd" clip-rule="evenodd" d="M13.5224 46.4478H34.7489C35.295 46.4478 35.8186 46.2313 36.2047 45.8459C36.5908 45.4605 36.8077 44.9377 36.8077 44.3926V41.9757C36.8077 40.8406 35.886 39.9205 34.7489 39.9205H13.5224C12.3854 39.9205 11.4636 40.8406 11.4636 41.9757V44.3926C11.4636 45.5277 12.3854 46.4478 13.5224 46.4478ZM12.2872 41.9757C12.2872 41.2947 12.8402 40.7426 13.5224 40.7426H34.7489C35.4312 40.7426 35.9842 41.2947 35.9842 41.9757V44.3926C35.9842 45.0737 35.4312 45.6258 34.7489 45.6258H13.5224C12.8402 45.6258 12.2872 45.0737 12.2872 44.3926V41.9757Z" fill="#093F68"/>
<rect x="33.1182" y="51.7462" width="24.5206" height="5.70117" rx="2.85058" transform="rotate(-180 33.1182 51.7462)" fill="#3EE9E5"/>
<path fill-rule="evenodd" clip-rule="evenodd" d="M10.2446 52.1572H31.4711C32.0185 52.1572 32.5435 51.9396 32.9298 51.5524C33.3162 51.1652 33.5321 50.6403 33.5299 50.0938V47.681C33.5299 46.5459 32.6081 45.6258 31.4711 45.6258H10.2446C9.10756 45.6258 8.18579 46.5459 8.18579 47.681V50.102C8.18579 51.2371 9.10756 52.1572 10.2446 52.1572ZM9.00932 47.681C9.00932 46.9999 9.56238 46.4478 10.2446 46.4478H31.4711C32.1533 46.4478 32.7064 46.9999 32.7064 47.681V50.0938C32.7064 50.7748 32.1533 51.3269 31.4711 51.3269H10.2446C9.56238 51.3269 9.00932 50.7748 9.00932 50.0938V47.681Z" fill="#093F68"/>
<rect x="29.6636" y="57.4474" width="24.5206" height="5.70117" rx="2.85058" transform="rotate(-180 29.6636 57.4474)" fill="#3EE9E5"/>
<path fill-rule="evenodd" clip-rule="evenodd" d="M6.79002 57.8584H28C29.1371 57.8584 30.0588 56.9382 30.0588 55.8032V53.3904C30.0588 52.2553 29.1371 51.3351 28 51.3351H6.79002C5.65297 51.3351 4.7312 52.2553 4.7312 53.3904V55.8032C4.7312 56.9382 5.65297 57.8584 6.79002 57.8584ZM5.53826 53.3904C5.53826 52.7093 6.09132 52.1572 6.77355 52.1572H28C28.6823 52.1572 29.2353 52.7093 29.2353 53.3904V55.8032C29.2353 56.4842 28.6823 57.0363 28 57.0363H6.77355C6.09132 57.0363 5.53826 56.4842 5.53826 55.8032V53.3904Z" fill="#093F68"/>
<rect x="33.1182" y="63.1526" width="24.5206" height="5.70117" rx="2.85058" transform="rotate(-180 33.1182 63.1526)" fill="#3EE9E5"/>
<path fill-rule="evenodd" clip-rule="evenodd" d="M10.2446 63.5637H31.4711C32.6081 63.5637 33.5299 62.6435 33.5299 61.5085V59.0915C33.5299 57.9565 32.6081 57.0363 31.4711 57.0363H10.2446C9.10756 57.0363 8.18579 57.9565 8.18579 59.0915V61.5085C8.18579 62.6435 9.10756 63.5637 10.2446 63.5637ZM9.00932 59.0915C9.00932 58.4105 9.56238 57.8584 10.2446 57.8584H31.4711C32.1533 57.8584 32.7064 58.4105 32.7064 59.0915V61.5085C32.7064 62.1895 32.1533 62.7416 31.4711 62.7416H10.2446C9.56238 62.7416 9.00932 62.1895 9.00932 61.5085V59.0915Z" fill="#093F68"/>
<path d="M50.7573 39.7026C52.1902 40.3639 52.8147 42.0622 52.1516 43.4942L44.2617 60.5318C43.5998 61.9611 41.9053 62.5842 40.4751 61.9243C39.0422 61.263 38.4177 59.5646 39.0808 58.1326L46.9707 41.0951C47.6326 39.6658 49.3271 39.0426 50.7573 39.7026Z" fill="#3EE9E5"/>
<path fill-rule="evenodd" clip-rule="evenodd" d="M41.3948 62.7991C41.6646 62.9234 41.9582 62.9879 42.2553 62.9882C43.058 62.9886 43.7877 62.5233 44.1248 61.7962L53.0312 42.5635C53.2608 42.0686 53.2839 41.5029 53.0955 40.991C52.907 40.4791 52.5225 40.0629 52.0265 39.8342L49.8318 38.823C49.3361 38.5938 48.7694 38.5708 48.2565 38.7589C47.7437 38.947 47.3268 39.3309 47.0977 39.826L38.1912 59.0587C37.7159 60.0882 38.1654 61.3075 39.1959 61.7839L41.3948 62.7991ZM48.5553 39.5382C48.6867 39.4874 48.8262 39.4609 48.9671 39.4601C49.1478 39.4551 49.3275 39.4888 49.4942 39.5588L51.6889 40.5741C51.9886 40.7108 52.2211 40.9614 52.3348 41.2702C52.4485 41.579 52.4338 41.9203 52.2942 42.2182L43.3712 61.4509C43.2335 61.7494 42.9821 61.9806 42.6728 62.0933C42.3636 62.2059 42.0221 62.1907 41.7242 62.051L39.5295 61.0399C39.2439 60.8986 39.0241 60.6527 38.9159 60.3534C38.8002 60.0476 38.8136 59.708 38.953 59.4122L47.8595 40.1795C47.9969 39.8819 48.2473 39.6512 48.5553 39.5382Z" fill="#093F68"/>
<path d="M46.8695 35.077C48.2295 35.8776 48.6816 37.6298 47.8789 38.9885L38.3264 55.1577C37.5255 56.5134 35.7779 56.9644 34.4209 56.1655C33.061 55.3649 32.6088 53.6127 33.4115 52.254L42.964 36.0848C43.765 34.7291 45.5126 34.2781 46.8695 35.077Z" fill="#3EE9E5"/>
<path fill-rule="evenodd" clip-rule="evenodd" d="M35.2511 57.1309C35.5669 57.3162 35.9265 57.4141 36.2929 57.4145C37.0263 57.4225 37.7086 57.0405 38.0841 56.4115L48.8641 38.1612C49.1421 37.6919 49.2219 37.1316 49.086 36.6035C48.9501 36.0755 48.6096 35.6229 48.1393 35.3456L46.0558 34.1124C45.5857 33.8349 45.0244 33.7552 44.4954 33.8909C43.9664 34.0265 43.5131 34.3665 43.2352 34.8359L32.4388 53.0821C32.1611 53.5519 32.0818 54.1126 32.2186 54.6407C32.3553 55.1688 32.6967 55.621 33.1676 55.8977L35.2511 57.1309ZM44.6888 34.6879C44.7893 34.6601 44.8932 34.6463 44.9976 34.6468C45.2179 34.6476 45.434 34.7072 45.6235 34.8194L47.707 36.0526C47.9894 36.2187 48.1941 36.4901 48.2759 36.807C48.3578 37.1238 48.3102 37.4602 48.1435 37.742L37.3593 55.9923C37.1929 56.2742 36.921 56.4785 36.6036 56.5602C36.2862 56.6419 35.9493 56.5944 35.667 56.428L33.5876 55.1948C33.3052 55.0287 33.1005 54.7573 33.0186 54.4404C32.9368 54.1236 32.9844 53.7872 33.1511 53.5055L43.9311 35.2551C44.0981 34.9731 44.3708 34.769 44.6888 34.6879Z" fill="#093F68"/>
<ellipse cx="23.2112" cy="52.8766" rx="10.2776" ry="10.2596" fill="#3EE9E5"/>
<path fill-rule="evenodd" clip-rule="evenodd" d="M12.553 53.8768C13.0785 59.3653 17.7003 63.554 23.2235 63.5472C24.5702 63.5482 25.9048 63.2929 27.1558 62.795C32.2903 60.7631 35.0335 55.1656 33.4892 49.872C31.945 44.5784 26.62 41.3263 21.1955 42.364C15.771 43.4016 12.0276 48.3883 12.553 53.8768ZM13.4134 51.5404C14.0873 46.6501 18.2784 43.0098 23.2235 43.0198C26.5439 43.0264 29.639 44.6972 31.4624 47.4673C33.2859 50.2374 33.5939 53.7364 32.2823 56.7815C30.329 61.3164 25.3185 63.712 20.5545 62.3887C15.7904 61.0655 12.7395 56.4307 13.4134 51.5404Z" fill="#093F68"/>
<ellipse cx="23.2111" cy="52.8766" rx="7.84" ry="7.82626" fill="#3EE9E5"/>
<path fill-rule="evenodd" clip-rule="evenodd" d="M15.0669 53.9211C15.5827 58.023 19.0698 61.1045 23.2112 61.118C25.9448 61.1148 28.4999 59.7617 30.0354 57.504C31.571 55.2463 31.8881 52.3765 30.8823 49.839C29.3417 46.0016 25.186 43.9032 21.1765 44.938C17.167 45.9729 14.5511 49.8192 15.0669 53.9211ZM16.1355 50.6888C17.0896 47.5864 19.9574 45.467 23.208 45.4614C26.2542 45.4652 28.9909 47.3213 30.1165 50.1472C31.3088 53.1674 30.3898 56.6107 27.8501 58.6383C25.3105 60.6658 21.7435 60.804 19.0541 58.979C16.3647 57.154 15.1811 53.7921 16.1355 50.6888ZM23.208 45.4614C23.2091 45.4613 23.2101 45.4613 23.2112 45.4613H23.2029C23.2046 45.4613 23.2063 45.4613 23.208 45.4614Z" fill="#093F68"/>
<path fill-rule="evenodd" clip-rule="evenodd" d="M24.706 59.1039L24.3354 58.1708C24.2069 58.1848 24.0807 58.2011 23.9562 58.2172L23.9561 58.2172C23.7135 58.2485 23.4768 58.2791 23.2401 58.29C22.5411 58.3389 21.8461 58.1506 21.2677 57.7557C20.7799 57.4035 20.4086 56.914 20.2013 56.3499L22.0254 55.6265C22.3059 56.2658 22.9809 56.6381 23.6724 56.5349L22.6883 54.0686C22.5512 54.0809 22.414 54.0942 22.2768 54.1074L22.2766 54.1074C22.0021 54.1339 21.7275 54.1604 21.453 54.1796C21.012 54.2256 20.5664 54.1621 20.156 53.9946C19.7191 53.809 19.3528 53.4894 19.1101 53.0821C18.7888 52.5925 18.6105 52.0231 18.5954 51.4379C18.5712 50.5915 18.9277 49.7788 19.5672 49.2224C19.8289 49.0042 20.1039 48.8024 20.3907 48.6182L20.4895 48.5524L19.9995 47.3193L21.7042 46.6411L21.7536 46.7644C21.7874 46.8497 21.8214 46.9347 21.8554 47.0197C21.9622 47.2867 22.0685 47.5526 22.1654 47.8207C22.1983 47.9112 22.2354 47.9276 22.326 47.9112C22.9541 47.7914 23.6022 47.8296 24.2119 48.0222C24.8567 48.2316 25.4019 48.6705 25.7436 49.2553C25.81 49.3603 25.8672 49.469 25.9262 49.5814L25.9262 49.5814C25.9551 49.6362 25.9843 49.6919 26.0154 49.7485L24.1624 50.4802C23.9455 49.9687 23.4464 49.6334 22.8901 49.6252L23.8083 51.9312L24.0266 51.8983C24.5696 51.7991 25.1222 51.7619 25.6736 51.7873C26.5031 51.8081 27.2543 52.2817 27.6295 53.0204C28.3551 54.2665 28.079 55.8528 26.9748 56.7815C26.7785 56.9526 26.5673 57.1071 26.3499 57.266L26.3499 57.2661C26.2436 57.3438 26.1359 57.4226 26.0277 57.5049L26.386 58.4051L24.706 59.1039ZM24.5536 53.7357L25.406 55.8813C25.6668 55.7322 25.8819 55.5147 26.0277 55.2524C26.1789 54.9781 26.1948 54.6495 26.0708 54.362C25.9469 54.0744 25.697 53.86 25.3936 53.7809C25.1119 53.7505 24.8287 53.7354 24.5454 53.7357H24.5536ZM21.1319 50.1472L21.9554 52.2025C21.8626 52.2025 21.7721 52.2061 21.6834 52.2096C21.54 52.2153 21.401 52.2208 21.2636 52.2107C20.9432 52.1561 20.6716 51.9446 20.5406 51.6476C20.4097 51.3506 20.4369 51.0078 20.613 50.735C20.7742 50.5291 20.9475 50.3328 21.1319 50.1472Z" fill="#093F68"/>
</svg>
