<svg width="104" height="74" viewBox="0 0 104 74" fill="none" xmlns="http://www.w3.org/2000/svg">
<rect x="22.9412" y="7.62904" width="28.9802" height="13.0865" fill="#080C20"/>
<path fill-rule="evenodd" clip-rule="evenodd" d="M22.9411 21.1429H51.9257C52.167 21.1429 52.3626 20.9456 52.3626 20.7024V7.62904C52.3626 7.38578 52.167 7.18857 51.9257 7.18857H22.9411C22.6998 7.18857 22.5042 7.38578 22.5042 7.62904V20.7024C22.5042 20.9456 22.6998 21.1429 22.9411 21.1429ZM51.4887 20.2619H23.3781V8.06952H51.4887V20.2619Z" fill="#093F68"/>
<path d="M101.212 61.2923H3.55701V44.9946C3.55786 43.3796 3.75152 41.7706 4.13381 40.2023C4.37221 39.2619 4.67444 38.3391 5.03835 37.4405L9.76205 25.7987L10.4962 23.9927C11.2983 22.0093 13.2086 20.7099 15.3335 20.7024H59.8219C61.2313 20.7023 62.5806 21.2776 63.5624 22.2969L66.9315 25.7811L78.4457 37.7004C80.477 39.7996 83.2623 40.9843 86.1715 40.9863H94.911C97.2651 40.9907 99.2385 42.7806 99.4905 45.14L100.067 50.3332L101.212 61.2923Z" fill="#3EE9E5"/>
<path fill-rule="evenodd" clip-rule="evenodd" d="M3.55697 61.7327H101.212C101.338 61.728 101.456 61.6686 101.535 61.5698C101.619 61.4762 101.659 61.3512 101.645 61.2262L99.9405 45.1224C99.8842 44.5547 99.7289 44.0015 99.4817 43.4882C98.6485 41.7133 96.8764 40.5801 94.9284 40.5767H86.1889C83.3918 40.5798 80.7124 39.4422 78.7603 37.4229L63.877 22.0062C62.8104 20.9046 61.3488 20.2823 59.8218 20.2795H15.3378C13.0413 20.2688 10.9675 21.6623 10.0941 23.8033L4.63193 37.2555C4.2593 38.1797 3.95121 39.129 3.70991 40.0965C3.32027 41.6997 3.12222 43.3441 3.12 44.9946V61.2923C3.12 61.5355 3.31564 61.7327 3.55697 61.7327ZM100.727 60.8518H3.99394L4.00705 45.0123C4.00891 43.4344 4.19815 41.8625 4.57075 40.33C4.79877 39.4018 5.0908 38.4907 5.4447 37.6035L10.9244 24.1557C11.6485 22.3403 13.3923 21.1487 15.3334 21.1429H59.8218C61.1183 21.1423 62.36 21.6696 63.2652 22.6052L78.1442 38.0219C80.2574 40.2076 83.1568 41.4402 86.1845 41.44H94.924C96.5355 41.4436 98.0013 42.3812 98.6908 43.8494C98.8933 44.2733 99.0219 44.7293 99.0709 45.1973L100.727 60.8518Z" fill="#093F68"/>
<path d="M2.18484 58.3587H9.39056V62.9881H2.18484C1.74097 62.9881 1.31528 62.8104 1.00142 62.494C0.687557 62.1776 0.51123 61.7485 0.51123 61.3011V60.0457C0.51123 59.114 1.26053 58.3587 2.18484 58.3587Z" fill="#3EE9E5"/>
<path fill-rule="evenodd" clip-rule="evenodd" d="M2.18483 63.4286H9.37307C9.49196 63.4334 9.60765 63.3891 9.69342 63.306C9.77919 63.2228 9.82762 63.108 9.82752 62.9881V58.3587C9.82752 58.1154 9.63188 57.9182 9.39055 57.9182H2.18483C1.02089 57.9206 0.0786108 58.8724 0.0786133 60.0457V61.3011C0.0786108 62.4743 1.02089 63.4261 2.18483 63.4286ZM0.952563 60.0457C0.952559 59.359 1.50356 58.8016 2.18483 58.7992H8.95357V62.5476H2.18483C1.50356 62.5452 0.952559 61.9878 0.952563 61.3011V60.0457Z" fill="#093F68"/>
<path d="M94.627 58.3587H101.815C102.74 58.3587 103.489 59.114 103.489 60.0457V61.3011C103.489 61.7485 103.312 62.1776 102.999 62.494C102.685 62.8104 102.259 62.9881 101.815 62.9881H94.627V58.3587Z" fill="#3EE9E5"/>
<path fill-rule="evenodd" clip-rule="evenodd" d="M94.6269 63.4286H101.815C102.979 63.4261 103.921 62.4743 103.921 61.3011V60.0457C103.921 58.8724 102.979 57.9206 101.815 57.9182H94.6269C94.3856 57.9182 94.1899 58.1154 94.1899 58.3587V62.9881C94.1899 63.2314 94.3856 63.4286 94.6269 63.4286ZM101.815 62.5476H95.0464L95.0639 58.7992H101.815C102.496 58.8016 103.047 59.359 103.047 60.0457V61.3011C103.047 61.9878 102.496 62.5452 101.815 62.5476Z" fill="#093F68"/>
<ellipse cx="85.2713" cy="62.3142" rx="11.1254" ry="11.2145" fill="#080C20"/>
<path fill-rule="evenodd" clip-rule="evenodd" d="M74.5887 66.7689C76.378 71.1246 80.5944 73.9648 85.2713 73.9648C91.6523 73.9575 96.824 68.7463 96.8337 62.3142C96.8354 57.5998 94.0195 53.3486 89.6991 51.5432C85.3786 49.7379 80.4048 50.7339 77.097 54.0669C73.7893 57.3998 72.7993 62.4132 74.5887 66.7689ZM75.3965 58.1911C77.0509 54.1651 80.9483 51.5401 85.2713 51.5401V51.5357C91.1741 51.5406 95.9573 56.3641 95.9597 62.3142C95.9597 66.6719 93.3556 70.6005 89.3616 72.2681C85.3676 73.9357 80.7703 73.0139 77.7135 69.9326C74.6566 66.8512 73.7421 62.2171 75.3965 58.1911Z" fill="#093F68"/>
<ellipse cx="85.2713" cy="62.3142" rx="5.39227" ry="5.43548" fill="#093F68"/>
<path fill-rule="evenodd" clip-rule="evenodd" d="M79.8858 64.5628C80.788 66.7585 82.9136 68.1901 85.2713 68.1901C88.4887 68.1853 91.0957 65.5574 91.1006 62.3142C91.1006 59.9376 89.6803 57.795 87.5021 56.8855C85.3238 55.976 82.8166 56.4787 81.1494 58.1592C79.4823 59.8398 78.9835 62.3671 79.8858 64.5628ZM80.316 62.3142C80.316 59.5555 82.5346 57.3192 85.2713 57.3192C88.007 57.3216 90.2242 59.5565 90.2266 62.3142C90.2266 65.0728 88.008 67.3092 85.2713 67.3092C82.5346 67.3092 80.316 65.0728 80.316 62.3142Z" fill="#093F68"/>
<ellipse cx="17.549" cy="62.3142" rx="11.1254" ry="11.2145" fill="#080C20"/>
<path fill-rule="evenodd" clip-rule="evenodd" d="M6.86626 66.7689C8.65563 71.1246 12.872 73.9648 17.5489 73.9648C23.9309 73.9599 29.104 68.7473 29.1112 62.3142C29.113 57.5998 26.2971 53.3486 21.9766 51.5432C17.6562 49.7379 12.6823 50.7339 9.37462 54.0669C6.06691 57.3998 5.07688 62.4132 6.86626 66.7689ZM6.86049 62.3142C6.86049 56.3638 11.6459 51.5401 17.5489 51.5401V51.5357C23.4516 51.5406 28.2349 56.3641 28.2373 62.3142C28.2373 68.2645 23.4519 73.0882 17.5489 73.0882C11.6459 73.0882 6.86049 68.2645 6.86049 62.3142Z" fill="#093F68"/>
<ellipse cx="17.5489" cy="62.3142" rx="5.39227" ry="5.43548" fill="#093F68"/>
<path fill-rule="evenodd" clip-rule="evenodd" d="M11.7196 62.3142C11.7196 65.5594 14.3294 68.1901 17.5488 68.1901C20.7663 68.1853 23.3733 65.5574 23.3781 62.3142C23.3781 59.069 20.7683 56.4382 17.5488 56.4382C14.3294 56.4382 11.7196 59.069 11.7196 62.3142ZM12.5936 62.3142C12.5936 59.5555 14.8121 57.3192 17.5488 57.3192C20.2846 57.3216 22.5017 59.5565 22.5041 62.3142C22.5041 65.0728 20.2856 67.3092 17.5488 67.3092C14.8121 67.3092 12.5936 65.0728 12.5936 62.3142Z" fill="#093F68"/>
<path d="M36.6185 25.7943V40.2199H4.12939C4.36919 39.2736 4.67287 38.345 5.0383 37.4405L9.762 25.7987L36.6185 25.7943Z" fill="#080C20"/>
<path fill-rule="evenodd" clip-rule="evenodd" d="M4.13377 40.6604H36.6185C36.8598 40.6604 37.0555 40.4631 37.0555 40.2199V25.7943C37.0555 25.551 36.8598 25.3538 36.6185 25.3538H9.7489C9.5709 25.3529 9.41015 25.4609 9.34251 25.6269L4.61882 37.2687C4.24746 38.1934 3.9394 39.1426 3.6968 40.1098C3.66232 40.2441 3.69264 40.3869 3.77862 40.4953C3.8646 40.6036 3.9962 40.6648 4.13377 40.6604ZM36.1815 39.7794H4.71932H4.70184C4.90792 39.0409 5.15446 38.3145 5.44033 37.6035L10.0504 26.2348H36.1815V39.7794Z" fill="#093F68"/>
<path d="M82.1513 40.2199H41.9496V25.7943H66.9052L78.4195 37.7136C79.4728 38.8066 80.7449 39.661 82.1513 40.2199Z" fill="#080C20"/>
<path fill-rule="evenodd" clip-rule="evenodd" d="M82.1338 40.6604H82.1359C82.345 40.6598 82.5246 40.51 82.564 40.3028C82.6035 40.0949 82.4907 39.888 82.2954 39.8102C80.9526 39.2698 79.7376 38.4503 78.7297 37.4052L67.2154 25.4859C67.1337 25.4019 67.022 25.3543 66.9052 25.3538H41.9495C41.7082 25.3538 41.5126 25.551 41.5126 25.7943V40.2199C41.5126 40.4631 41.7082 40.6604 41.9495 40.6604H82.1338ZM80.3159 39.7794H42.3865L42.4127 26.2348H66.7479L78.1311 38.0175C78.7829 38.6951 79.517 39.2871 80.3159 39.7794Z" fill="#093F68"/>
<path d="M71.0565 58.7992H32.7732C32.5318 58.7992 32.3362 58.602 32.3362 58.3587C32.3362 58.1154 32.5318 57.9182 32.7732 57.9182H71.039C71.2804 57.9182 71.476 58.1154 71.476 58.3587C71.476 58.602 71.2804 58.7992 71.039 58.7992H71.0565Z" fill="#093F68"/>
<path d="M39.0175 56.9492C38.7762 56.9492 38.5806 56.752 38.5806 56.5087V42.5456C38.5806 42.3023 38.7762 42.1051 39.0175 42.1051C39.2589 42.1051 39.4545 42.3023 39.4545 42.5456V56.5087C39.4545 56.752 39.2589 56.9492 39.0175 56.9492Z" fill="#093F68"/>
<path d="M49.3782 45.2986H44.6545C44.4132 45.2986 44.2175 45.1014 44.2175 44.8581C44.2175 44.6148 44.4132 44.4176 44.6545 44.4176H49.3782C49.6195 44.4176 49.8152 44.6148 49.8152 44.8581C49.8152 45.1014 49.6195 45.2986 49.3782 45.2986Z" fill="#093F68"/>
<path d="M33.3805 45.2986H28.6743C28.4329 45.2986 28.2373 45.1014 28.2373 44.8581C28.2373 44.6148 28.4329 44.4176 28.6743 44.4176H33.3805C33.6218 44.4176 33.8175 44.6148 33.8175 44.8581C33.8175 45.1014 33.6218 45.2986 33.3805 45.2986Z" fill="#093F68"/>
<rect x="1.03125" y="43.6996" width="2.52571" height="7.4044" fill="#080C20"/>
<path fill-rule="evenodd" clip-rule="evenodd" d="M1.03121 51.5357H3.55693C3.79826 51.5357 3.9939 51.3385 3.9939 51.0952V43.6996C3.9939 43.4564 3.79826 43.2592 3.55693 43.2592H1.03121C0.789879 43.2592 0.594238 43.4564 0.594238 43.6996V51.0952C0.594238 51.3385 0.789879 51.5357 1.03121 51.5357ZM3.11995 50.6548H1.46819V44.1401H3.11995V50.6548Z" fill="#093F68"/>
<path d="M100.067 50.3332H96.3967C95.3952 50.3332 94.5833 49.5148 94.5833 48.5052V45.4836C94.5833 44.474 95.3952 43.6556 96.3967 43.6556H99.0841C99.313 44.1262 99.4607 44.6326 99.5211 45.1532L100.067 50.3332Z" fill="#080C20"/>
<path fill-rule="evenodd" clip-rule="evenodd" d="M96.3967 50.7737H100.067C100.192 50.7746 100.311 50.7217 100.395 50.6283C100.477 50.5359 100.517 50.4127 100.504 50.2892L99.9362 45.1048C99.8791 44.5358 99.7238 43.9813 99.4773 43.4662C99.4051 43.3132 99.2521 43.2156 99.0841 43.2151H96.3967C95.1548 43.2175 94.1486 44.2317 94.1462 45.4836V48.5052C94.1486 49.7571 95.1548 50.7713 96.3967 50.7737ZM95.0333 45.4836C95.0333 44.7173 95.6496 44.0961 96.4098 44.0961H98.8131C98.9502 44.4498 99.0412 44.82 99.0841 45.1973L99.5822 49.8927H96.4098C95.6496 49.8927 95.0333 49.2715 95.0333 48.5052V45.4836Z" fill="#093F68"/>
<path d="M12.7946 37.5374C12.6571 37.5374 12.5276 37.4721 12.4451 37.3612C12.3755 37.2677 12.3457 37.1503 12.3621 37.0346C12.3784 36.919 12.4397 36.8146 12.5325 36.7445L23.553 28.4151C23.6457 28.345 23.7622 28.3149 23.8769 28.3315C23.9917 28.348 24.0952 28.4098 24.1647 28.5032C24.2343 28.5967 24.2641 28.7141 24.2477 28.8298C24.2313 28.9454 24.17 29.0498 24.0773 29.1199L13.0568 37.4405C12.9823 37.5008 12.8902 37.5349 12.7946 37.5374Z" fill="#093F68"/>
<path d="M25.5367 36.1895C25.3509 36.1903 25.185 36.0726 25.123 35.896C25.061 35.7195 25.1165 35.5227 25.2615 35.4055L33.1052 28.9261C33.1949 28.8517 33.3103 28.8164 33.4259 28.8279C33.5415 28.8395 33.6478 28.897 33.7213 28.9877C33.7951 29.0782 33.8301 29.1945 33.8187 29.3111C33.8072 29.4276 33.7501 29.5348 33.6601 29.6088L25.8164 36.0882C25.7378 36.1539 25.6388 36.1897 25.5367 36.1895Z" fill="#093F68"/>
<path d="M47.0053 37.5374C46.8827 37.5382 46.7654 37.4871 46.682 37.3964C46.6032 37.3097 46.562 37.1947 46.5678 37.0773C46.5735 36.9598 46.6257 36.8495 46.7126 36.7709L56.8067 27.4373C56.9853 27.2731 57.2621 27.2859 57.425 27.4659C57.5879 27.6459 57.5752 27.925 57.3966 28.0892L47.3025 37.4405C47.2187 37.5086 47.1128 37.5431 47.0053 37.5374Z" fill="#093F68"/>
<path d="M60.4336 36.1895C60.3183 36.1879 60.2084 36.1404 60.1277 36.0574C59.9583 35.8856 59.9583 35.6081 60.1277 35.4363L64.9344 30.5911C65.1048 30.4203 65.3801 30.4203 65.5505 30.5911C65.72 30.7629 65.72 31.0403 65.5505 31.2121L60.7438 36.0574C60.6621 36.1414 60.5503 36.189 60.4336 36.1895Z" fill="#093F68"/>
<path fill-rule="evenodd" clip-rule="evenodd" d="M17.4789 21.1429H57.1038C57.2375 21.1377 57.3615 21.0712 57.4403 20.9623C57.5227 20.8477 57.5454 20.7002 57.5015 20.5658L55.6137 14.7295C55.5551 14.5484 55.3876 14.4257 55.1986 14.4256H19.3667C19.1697 14.4159 18.9906 14.5404 18.9297 14.7295L17.042 20.5658C16.9972 20.7037 17.0226 20.8549 17.1099 20.9702C17.1972 21.0855 17.3352 21.1501 17.4789 21.1429ZM56.5052 20.2619H18.0907L19.6944 15.3065H54.9015L56.5052 20.2619Z" fill="#093F68"/>
<rect x="28.6" y="0.475716" width="18.9997" height="7.15333" fill="#080C20"/>
<path fill-rule="evenodd" clip-rule="evenodd" d="M28.6001 8.06953H47.5954C47.8367 8.06953 48.0323 7.87232 48.0323 7.62905V0.475716C48.0323 0.232448 47.8367 0.0352402 47.5954 0.0352402H28.6001C28.3587 0.0352402 28.1631 0.232448 28.1631 0.475716V7.62905C28.1631 7.87232 28.3587 8.06953 28.6001 8.06953ZM47.1584 7.18857H29.037V0.916193H47.1584V7.18857Z" fill="#093F68"/>
<path d="M29.2117 21.1429C29.1697 21.1491 29.127 21.1491 29.085 21.1429C28.8551 21.0728 28.7243 20.8289 28.7922 20.5967L34.7613 0.334764C34.8308 0.103001 35.0728 -0.0288066 35.3032 0.0396448C35.5348 0.10776 35.6679 0.352298 35.6003 0.585835L29.6312 20.8477C29.5691 21.027 29.4 21.1459 29.2117 21.1429Z" fill="#093F68"/>
<path d="M47.2588 21.1429C47.0581 21.1509 46.8779 21.0201 46.8218 20.8257L41.0013 0.563808C40.9365 0.33167 41.069 0.0901804 41.2984 0.022022C41.4097 -0.010688 41.5293 0.00249258 41.6309 0.0586642C41.7325 0.114836 41.8078 0.209397 41.8403 0.321546L47.6608 20.5835C47.7284 20.817 47.5953 21.0615 47.3636 21.1296C47.3295 21.139 47.2942 21.1435 47.2588 21.1429Z" fill="#093F68"/>
<path d="M27.3371 9.84464H25.1173C24.8759 9.84464 24.6803 9.64744 24.6803 9.40417C24.6803 9.1609 24.8759 8.96369 25.1173 8.96369H27.3371C27.5784 8.96369 27.7741 9.1609 27.7741 9.40417C27.7741 9.64744 27.5784 9.84464 27.3371 9.84464Z" fill="#093F68"/>
<path d="M31.4621 2.59441H30.0857C29.8443 2.59441 29.6487 2.3972 29.6487 2.15393C29.6487 1.91066 29.8443 1.71346 30.0857 1.71346H31.4621C31.7035 1.71346 31.8991 1.91066 31.8991 2.15393C31.8991 2.3972 31.7035 2.59441 31.4621 2.59441Z" fill="#093F68"/>
</svg>
