<svg width="74" height="89" viewBox="0 0 74 89" fill="none" xmlns="http://www.w3.org/2000/svg">
<path d="M70.2619 24.7398C67.0353 20.7539 60.2284 20.5355 58.3893 14.5949C56.5501 8.65429 57.0834 6.13718 57.0834 6.13718H16.9166C16.9166 6.13718 17.4607 8.64883 15.6107 14.5949C13.7607 20.541 6.9647 20.7485 3.73809 24.7398C0.88147 28.278 0.88147 33.5033 0.88147 39.0399V75.781C0.88147 81.7271 3.63471 87.979 10.175 87.979H63.825C70.3544 87.979 73.1185 81.7271 73.1185 75.781V39.0399C73.1185 33.5033 73.1185 28.278 70.2619 24.7398Z" fill="#080C20"/>
<path fill-rule="evenodd" clip-rule="evenodd" d="M10.175 88.525H63.8251C70.6211 88.525 73.6627 82.1202 73.7171 75.7865V39.0453C73.7171 33.4105 73.7171 28.0869 70.7408 24.4013C69.3665 22.7061 67.3904 21.6639 65.4782 20.6554L65.4683 20.6502C62.628 19.165 59.9673 17.7618 58.9389 14.4366C57.1814 8.74166 57.6493 6.24638 57.6493 6.24638C57.6826 6.08402 57.6405 5.91528 57.535 5.78773C57.4325 5.6609 57.2788 5.58678 57.1161 5.5857H16.9493C16.784 5.58235 16.6261 5.65459 16.5203 5.78206C16.4144 5.90952 16.3721 6.07836 16.4052 6.24092L16.4055 6.24273C16.42 6.3253 16.8549 8.80603 15.1156 14.4311C14.0655 17.7563 11.4048 19.1596 8.58623 20.6447C8.54104 20.6688 8.49583 20.6929 8.45058 20.717C6.57782 21.7148 4.65787 22.7378 3.31373 24.3958C0.337402 28.0814 0.337402 33.405 0.337402 39.0399V75.781C0.337402 82.1202 3.37902 88.525 10.175 88.525ZM16.1331 14.7533C17.488 10.3742 17.5805 7.80251 17.5206 6.68319H56.5121C56.4523 7.80251 56.5448 10.3852 57.8996 14.7533C59.0631 18.5123 62.0465 20.0853 64.9336 21.6075L64.9405 21.6112C66.8395 22.6104 68.6405 23.5604 69.8702 25.0838C72.5908 28.4691 72.5908 33.5798 72.5908 39.0399V75.781C72.5908 81.5797 69.8865 87.4329 63.8414 87.4329H10.1914C4.16255 87.4329 1.44196 81.5797 1.44196 75.781V39.0399C1.44196 33.6016 1.44196 28.4691 4.16255 25.0838C5.39226 23.5604 7.19328 22.6104 9.09226 21.6112L9.09912 21.6075C11.9863 20.0853 14.9696 18.5123 16.1331 14.7533Z" fill="#093F68"/>
<path fill-rule="evenodd" clip-rule="evenodd" d="M10.175 85.2489H63.825C70.1293 85.2489 70.3917 76.9826 70.4291 75.8048C70.4296 75.7882 70.4301 75.773 70.4306 75.7592V39.018C70.4306 34.0002 70.4306 29.2444 68.1834 26.4598C67.2312 25.2858 65.626 24.4395 63.9229 23.544L63.8073 23.4822C60.8567 21.9048 57.2335 19.9679 55.821 15.403C55.1654 13.0641 54.7121 10.6728 54.4662 8.2557C54.433 7.97999 54.1988 7.77321 53.9221 7.77521H20.1323C19.8556 7.77321 19.6214 7.97999 19.5882 8.2557C19.3364 10.6808 18.8758 13.0795 18.2116 15.4248C16.7806 20.0496 13.0806 21.9988 10.1043 23.5659L10.1016 23.5673C8.40494 24.4622 6.80097 25.3083 5.84926 26.4816C3.60205 29.2444 3.60205 34.0002 3.60205 39.0399V75.781C3.60205 76.7475 3.78161 85.2489 10.175 85.2489ZM19.2509 15.7252C19.8874 13.4808 20.3352 11.1868 20.5894 8.86724H53.4106C53.6648 11.1868 54.1125 13.4808 54.7491 15.7252C56.3162 20.7812 60.2338 22.8725 63.3897 24.5105C64.984 25.3513 66.4912 26.1485 67.3019 27.1477C69.3097 29.6321 69.3097 34.2022 69.3097 39.0399V75.781C69.3097 76.6383 69.1573 84.1569 63.825 84.1569H10.175C4.84264 84.1569 4.69029 76.6383 4.69029 75.781V39.0399C4.69029 34.2022 4.69029 29.6321 6.69808 27.1477C7.50882 26.1485 9.01602 25.3513 10.6157 24.5105C10.6563 24.4887 10.6971 24.4669 10.7379 24.4451C13.8668 22.7702 17.704 20.7161 19.2509 15.7252Z" fill="#093F68"/>
<path d="M13.4017 0.808098H60.5984C62.9244 0.808098 64.8099 2.7002 64.8099 5.03423V7.76429C64.8099 8.38843 64.5628 8.98701 64.123 9.42834C63.6832 9.86967 63.0867 10.1176 62.4647 10.1176H11.5353C10.9134 10.1176 10.3169 9.86967 9.87706 9.42834C9.43726 8.98701 9.19019 8.38843 9.19019 7.76429V5.03423C9.19019 2.7002 11.0757 0.808098 13.4017 0.808098Z" fill="#080C20"/>
<path fill-rule="evenodd" clip-rule="evenodd" d="M11.5353 10.68H62.4647C64.0604 10.68 65.3539 9.38193 65.3539 7.78067V5.05061C65.3509 2.41628 63.2235 0.281474 60.5984 0.278465H13.4016C10.7764 0.281474 8.64899 2.41628 8.646 5.05061V7.78067C8.646 9.38193 9.93956 10.68 11.5353 10.68ZM10.8084 2.43199C11.4961 1.74184 12.4289 1.35411 13.4016 1.35411H60.5983C62.6238 1.35411 64.2657 3.00176 64.2657 5.03423V7.76429C64.2657 8.76244 63.4594 9.57159 62.4647 9.57159H11.5353C10.5406 9.57159 9.73423 8.76244 9.73423 7.76429V5.03423C9.73423 4.0582 10.1206 3.12215 10.8084 2.43199Z" fill="#093F68"/>
<rect x="12.3678" y="45.9961" width="32.4022" height="7.57319" rx="3.7866" fill="#3EE9E5"/>
<path fill-rule="evenodd" clip-rule="evenodd" d="M14.5443 54.1153H42.5936C44.0961 54.1153 45.3142 52.893 45.3142 51.3852V48.1801C45.3142 46.6724 44.0961 45.4501 42.5936 45.4501H14.5443C13.0418 45.4501 11.8237 46.6724 11.8237 48.1801V51.3852C11.8237 52.893 13.0418 54.1153 14.5443 54.1153ZM12.912 48.1801C12.912 47.2755 13.6428 46.5421 14.5443 46.5421H42.5936C43.4951 46.5421 44.2259 47.2755 44.2259 48.1801V51.3852C44.2259 52.2899 43.4951 53.0233 42.5936 53.0233H14.5443C13.6428 53.0233 12.912 52.2899 12.912 51.3852V48.1801Z" fill="#093F68"/>
<rect x="15.6924" y="53.5693" width="32.4022" height="7.57319" rx="3.7866" fill="#3EE9E5"/>
<path fill-rule="evenodd" clip-rule="evenodd" d="M17.8688 61.6994H45.918C46.6396 61.6994 47.3316 61.4118 47.8418 60.8998C48.352 60.3878 48.6386 59.6934 48.6386 58.9693V55.7588C48.6386 54.251 47.4206 53.0287 45.918 53.0287H17.8688C16.3662 53.0287 15.1482 54.251 15.1482 55.7588V58.9693C15.1482 60.4771 16.3662 61.6994 17.8688 61.6994ZM16.2364 55.7588C16.2364 54.8541 16.9673 54.1207 17.8688 54.1207H45.918C46.8196 54.1207 47.5504 54.8541 47.5504 55.7588V58.9693C47.5504 59.874 46.8196 60.6074 45.918 60.6074H17.8688C16.9673 60.6074 16.2364 59.874 16.2364 58.9693V55.7588Z" fill="#093F68"/>
<rect x="43.7634" y="68.7375" width="32.4022" height="7.57319" rx="3.7866" transform="rotate(-180 43.7634 68.7375)" fill="#3EE9E5"/>
<path fill-rule="evenodd" clip-rule="evenodd" d="M13.5376 69.2835H41.5869C42.3103 69.2835 43.0039 68.9944 43.5145 68.48C44.025 67.9657 44.3104 67.2685 44.3075 66.5425V63.3374C44.3075 61.8297 43.0894 60.6074 41.5869 60.6074H13.5376C12.0351 60.6074 10.817 61.8297 10.817 63.3374V66.5534C10.817 68.0612 12.0351 69.2835 13.5376 69.2835ZM11.9053 63.3374C11.9053 62.4328 12.6361 61.6994 13.5376 61.6994H41.5869C42.4884 61.6994 43.2192 62.4328 43.2192 63.3374V66.5425C43.2192 67.4472 42.4884 68.1806 41.5869 68.1806H13.5376C12.6361 68.1806 11.9053 67.4472 11.9053 66.5425V63.3374Z" fill="#093F68"/>
<rect x="39.1982" y="76.3107" width="32.4022" height="7.57319" rx="3.7866" transform="rotate(-180 39.1982 76.3107)" fill="#3EE9E5"/>
<path fill-rule="evenodd" clip-rule="evenodd" d="M8.97254 76.8567H37C38.5026 76.8567 39.7206 75.6344 39.7206 74.1266V70.9215C39.7206 69.4138 38.5026 68.1915 37 68.1915H8.97254C7.47 68.1915 6.25195 69.4138 6.25195 70.9215V74.1266C6.25195 75.6344 7.47 76.8567 8.97254 76.8567ZM7.31842 70.9215C7.31842 70.0169 8.04925 69.2835 8.95078 69.2835H37C37.9016 69.2835 38.6324 70.0169 38.6324 70.9215V74.1266C38.6324 75.0313 37.9016 75.7647 37 75.7647H8.95078C8.04925 75.7647 7.31842 75.0313 7.31842 74.1266V70.9215Z" fill="#093F68"/>
<rect x="43.7634" y="83.8893" width="32.4022" height="7.57319" rx="3.7866" transform="rotate(-180 43.7634 83.8893)" fill="#3EE9E5"/>
<path fill-rule="evenodd" clip-rule="evenodd" d="M13.5376 84.4353H41.5869C43.0894 84.4353 44.3075 83.213 44.3075 81.7053V78.4947C44.3075 76.987 43.0894 75.7647 41.5869 75.7647H13.5376C12.0351 75.7647 10.817 76.987 10.817 78.4947V81.7053C10.817 83.213 12.0351 84.4353 13.5376 84.4353ZM11.9053 78.4947C11.9053 77.5901 12.6361 76.8567 13.5376 76.8567H41.5869C42.4884 76.8567 43.2192 77.5901 43.2192 78.4947V81.7053C43.2192 82.6099 42.4884 83.3433 41.5869 83.3433H13.5376C12.6361 83.3433 11.9053 82.6099 11.9053 81.7053V78.4947Z" fill="#093F68"/>
<path d="M67.0857 52.7456C68.9739 53.6215 69.7971 55.8602 68.9262 57.7506L58.4895 80.4059C57.6154 82.3034 55.3665 83.1304 53.4713 82.2513C51.5832 81.3754 50.7599 79.1367 51.6308 77.2463L62.0675 54.591C62.9416 52.6935 65.1905 51.8665 67.0857 52.7456Z" fill="#3EE9E5"/>
<path fill-rule="evenodd" clip-rule="evenodd" d="M54.7001 83.4198C55.0567 83.5849 55.4446 83.6705 55.8373 83.6709C56.8979 83.6714 57.8621 83.0534 58.3076 82.0875L70.0769 56.5396C70.3802 55.8822 70.4108 55.1307 70.1618 54.4507C69.9127 53.7707 69.4046 53.2179 68.7492 52.914L65.8491 51.5709C65.194 51.2664 64.4451 51.2358 63.7675 51.4857C63.0898 51.7355 62.5389 52.2455 62.2361 52.9031L50.4669 78.451C49.8388 79.8186 50.4328 81.4384 51.7945 82.0711L54.7001 83.4198ZM64.1623 52.5209C64.3359 52.4534 64.5203 52.4182 64.7064 52.4172C64.9452 52.4105 65.1827 52.4552 65.4029 52.5482L68.303 53.8969C68.6991 54.0785 69.0064 54.4115 69.1566 54.8216C69.3068 55.2318 69.2875 55.6851 69.1029 56.0809L57.3119 81.6288C57.1298 82.0253 56.7976 82.3324 56.389 82.4821C55.9804 82.6318 55.5291 82.6116 55.1354 82.426L52.2352 81.0828C51.8579 80.8952 51.5674 80.5685 51.4245 80.171C51.2716 79.7647 51.2893 79.3136 51.4735 78.9206L63.2427 53.3727C63.4243 52.9775 63.7552 52.671 64.1623 52.5209Z" fill="#093F68"/>
<path d="M61.9497 46.6036C63.741 47.6636 64.3369 49.9731 63.2823 51.7675L50.6497 73.2625C49.5905 75.0647 47.2689 75.6638 45.47 74.5991C43.6787 73.5391 43.0828 71.2296 44.1374 69.4352L56.7701 47.9402C57.8292 46.1381 60.1508 45.539 61.9497 46.6036Z" fill="#3EE9E5"/>
<path fill-rule="evenodd" clip-rule="evenodd" d="M46.5819 75.8902C46.9992 76.1365 47.4744 76.2666 47.9585 76.267C48.9276 76.2777 49.8292 75.7702 50.3254 74.9347L64.5704 50.6918C64.9378 50.0684 65.0433 49.3241 64.8637 48.6226C64.6841 47.9211 64.2341 47.32 63.6128 46.9516L60.8595 45.3136C60.2383 44.9449 59.4966 44.839 58.7975 45.0192C58.0985 45.1994 57.4995 45.651 57.1323 46.2745L42.8655 70.512C42.4986 71.1361 42.3939 71.8809 42.5746 72.5824C42.7552 73.284 43.2064 73.8847 43.8286 74.2522L46.5819 75.8902ZM59.053 46.078C59.1859 46.0411 59.3233 46.0227 59.4611 46.0234C59.7523 46.0244 60.0378 46.1036 60.2882 46.2527L63.0414 47.8907C63.4146 48.1114 63.6851 48.4719 63.7933 48.8928C63.9014 49.3138 63.8385 49.7606 63.6182 50.1348L49.3678 74.3778C49.1478 74.7523 48.7886 75.0237 48.3691 75.1322C47.9497 75.2408 47.5044 75.1776 47.1314 74.9566L44.3836 73.3185C44.0105 73.0978 43.74 72.7373 43.6318 72.3164C43.5236 71.8955 43.5866 71.4487 43.8069 71.0744L58.0519 46.8315C58.2726 46.4568 58.6328 46.1857 59.053 46.078Z" fill="#093F68"/>
<ellipse cx="30.6719" cy="70.239" rx="13.5812" ry="13.6285" fill="#3EE9E5"/>
<path fill-rule="evenodd" clip-rule="evenodd" d="M16.588 71.5677C17.2823 78.8584 23.3897 84.4225 30.6882 84.4135C32.4679 84.4147 34.2314 84.0756 35.8845 83.4143C42.6693 80.7152 46.2944 73.2797 44.2537 66.2479C42.213 59.2161 35.1765 54.8962 28.0084 56.2745C20.8403 57.6529 15.8937 64.277 16.588 71.5677ZM17.7249 68.4641C18.6154 61.968 24.1537 57.1324 30.6882 57.1456C35.0759 57.1545 39.1659 59.3739 41.5754 63.0536C43.985 66.7332 44.392 71.3812 42.6588 75.4261C40.0777 81.4502 33.4567 84.6324 27.1613 82.8746C20.8659 81.1168 16.8344 74.9602 17.7249 68.4641Z" fill="#093F68"/>
<ellipse cx="30.6719" cy="70.239" rx="10.36" ry="10.3961" fill="#3EE9E5"/>
<path fill-rule="evenodd" clip-rule="evenodd" d="M19.9099 71.6265C20.5915 77.0753 25.1994 81.1686 30.6719 81.1866C34.2843 81.1824 37.6606 79.385 39.6897 76.386C41.7188 73.3869 42.1378 69.5747 40.8088 66.204C38.773 61.1065 33.2816 58.3191 27.9833 59.6938C22.685 61.0685 19.2283 66.1777 19.9099 71.6265ZM21.3219 67.3329C22.5826 63.2119 26.3722 60.3964 30.6678 60.389C34.693 60.3941 38.3094 62.8596 39.7968 66.6135C41.3724 70.6254 40.158 75.1993 36.802 77.8926C33.446 80.5859 28.7325 80.7695 25.1786 78.3452C21.6248 75.9209 20.0608 71.4552 21.3219 67.3329ZM30.6678 60.389C30.6691 60.389 30.6705 60.389 30.6719 60.389H30.661C30.6633 60.389 30.6655 60.389 30.6678 60.389Z" fill="#093F68"/>
<path fill-rule="evenodd" clip-rule="evenodd" d="M32.647 78.5111L32.1573 77.2717C31.9875 77.2902 31.8208 77.3118 31.6562 77.3332L31.6562 77.3332C31.3356 77.3749 31.0228 77.4156 30.71 77.43C29.7863 77.4949 28.8679 77.2448 28.1036 76.7202C27.4591 76.2525 26.9683 75.6022 26.6944 74.8528L29.1048 73.8918C29.4755 74.7411 30.3675 75.2356 31.2813 75.0985L29.9809 71.8225C29.7995 71.8388 29.6181 71.8564 29.4367 71.874C29.074 71.9092 28.7112 71.9444 28.3485 71.9699C27.7657 72.031 27.1769 71.9466 26.6345 71.7242C26.0573 71.4776 25.5732 71.0531 25.2525 70.512C24.8278 69.8616 24.5923 69.1053 24.5723 68.328C24.5404 67.2037 25.0115 66.124 25.8564 65.385C26.2023 65.0951 26.5657 64.827 26.9447 64.5823L27.0753 64.495L26.4278 62.8569L28.6804 61.956L28.7457 62.1198C28.7903 62.2331 28.8353 62.3461 28.8802 62.459C29.0213 62.8137 29.1618 63.1668 29.2898 63.5231C29.3334 63.6432 29.3823 63.665 29.502 63.6432C30.332 63.4841 31.1885 63.5348 31.9941 63.7906C32.8463 64.0688 33.5667 64.6519 34.0182 65.4287C34.106 65.5681 34.1815 65.7125 34.2595 65.8618L34.2596 65.8619C34.2976 65.9347 34.3363 66.0087 34.3773 66.0839L31.9288 67.0558C31.6421 66.3763 30.9827 65.9309 30.2475 65.9201L31.4609 68.9832L31.7492 68.9395C32.4668 68.8078 33.197 68.7584 33.9257 68.7921C35.0218 68.8197 36.0144 69.4488 36.5103 70.4301C37.4691 72.0853 37.1042 74.1926 35.6451 75.4261C35.3857 75.6535 35.1066 75.8587 34.8194 76.0698L34.8194 76.0698C34.6789 76.1731 34.5366 76.2777 34.3936 76.3871L34.867 77.5829L32.647 78.5111ZM32.4457 71.3802L33.572 74.2304C33.9167 74.0323 34.2009 73.7435 34.3936 73.395C34.5933 73.0306 34.6143 72.5942 34.4506 72.2122C34.2868 71.8302 33.9566 71.5454 33.5557 71.4402C33.1834 71.3999 32.8093 71.3798 32.4348 71.3802H32.4457ZM27.9241 66.6135L29.0123 69.3436C28.8897 69.3436 28.7702 69.3483 28.6529 69.353C28.4634 69.3606 28.2798 69.368 28.0982 69.3545C27.6748 69.282 27.3159 69.001 27.1428 68.6065C26.9698 68.2119 27.0057 67.7566 27.2385 67.3943C27.4515 67.1207 27.6804 66.86 27.9241 66.6135Z" fill="#093F68"/>
</svg>
