<svg width="35" height="35" viewBox="0 0 35 35" fill="none" xmlns="http://www.w3.org/2000/svg">
<path fill-rule="evenodd" clip-rule="evenodd" d="M31.9475 17.306C31.9823 16.8752 32 16.4397 32 16C32 15.1345 31.9313 14.2851 31.799 13.4569C33.7861 15.7342 34.9925 18.7108 35 21.9703C35.0079 25.4215 33.6431 28.7343 31.2064 31.1784C28.7697 33.6225 25.4611 34.9974 22.0099 35C18.7362 35.0025 15.7441 33.7947 13.4569 31.799C14.2851 31.9313 15.1345 32 16 32C16.4392 32 16.8743 31.9823 17.3046 31.9476C20.0679 33.2513 23.3103 33.3718 26.2347 32.1519C30.345 30.4375 33.0159 26.4138 32.9999 21.9603C32.9925 20.2955 32.6157 18.7182 31.9475 17.306ZM31.9475 17.306C30.1859 13.5833 26.3987 11.0078 22.01 11C17.5565 10.996 13.54 13.6778 11.8367 17.7927C10.1333 21.9076 11.0793 26.6436 14.2326 29.7884C15.1424 30.6957 16.1841 31.4189 17.3046 31.9476C25.1002 31.3185 31.3177 25.1014 31.9475 17.306ZM13.4569 31.799C5.82898 30.5808 0 23.9711 0 16C0 7.16344 7.16344 0 16 0C23.9711 0 30.5807 5.82896 31.799 13.4569C29.4107 10.7198 25.8945 8.99306 21.9769 9.00002C14.7998 9.01277 8.99091 14.8394 9.00001 22.0165C9.00496 25.9199 10.7298 29.4195 13.4569 31.799Z" fill="#3EE9E5"/>
</svg>
